<mxfile host="65bd71144e">
    <diagram id="50qwWqesNZDOp1v7n8cO" name="Page-1">
        <mxGraphModel dx="746" dy="308" grid="1" gridSize="10" guides="1" tooltips="1" connect="1" arrows="1" fold="1" page="1" pageScale="1" pageWidth="850" pageHeight="1100" math="0" shadow="0">
            <root>
                <mxCell id="0"/>
                <mxCell id="1" parent="0"/>
                <mxCell id="2" value="" style="shape=image;verticalLabelPosition=bottom;labelBackgroundColor=default;verticalAlign=top;aspect=fixed;imageAspect=0;image=data:image/jpeg,/9j/4AAQSkZJRgABAQAAAQABAAD/2wCEAAYGBgYHBgcICAcKCwoLCg8ODAwODxYQERAREBYiFRkVFRkVIh4kHhweJB42KiYmKjY+NDI0PkxERExfWl98fKcBBgYGBgcGBwgIBwoLCgsKDw4MDA4PFhAREBEQFiIVGRUVGRUiHiQeHB4kHjYqJiYqNj40MjQ+TERETF9aX3x8p//CABEIAh4F6gMBIgACEQEDEQH/xAAtAAEBAQEBAQAAAAAAAAAAAAAAAQIDBAUBAQEBAAAAAAAAAAAAAAAAAAABAv/aAAwDAQACEAMQAAAC+oIAgEsshSLAgoEsLYKgllLASwqUoJLCgoM6zoJRnWDYAM2UqUAzrOgBjeDZSKiZ1mtiVKMazoASwlmiKJneSqIoxVI0MtDnqbTLRc56YSzVXF0M56YsrUly0rFm0w1VxN5RbTLQzN5DQy0OelI0MtDnuaMtQmdwKJNDM3AolsM6lAEsFlFgQNJDTIm8aKkNZuTbMNshcaNMi5Q2yNSDSQ1IJrOgF6CKgCpNZRZRAgKlGdZNAAlzoASwWUASwoAM6zoAY3g2AFlzpFgoXOsbQBnWTVlgFmdZTVlWAzrn0AEQazQBnWDoCLCazoAAzrGkqVZnWU2FAY1g2Agx059Elhbmyy0AVjeU0FBMbxsAEJc6KlGdYNAAgNJQDOs6AGdZLYKQJSgAzrOgBnWTQEsJZoiiQKBLkqiLDOpQF6IKABnWUzaJFJnXKzpc9FzNyJaMtDnq0iiTUM20ytMzeSqIsM6miLBnUKYN2CWDVyNSCbxoqQ1GTbNKyNYsNso0yWb56TTJbJE1c0twXfPWbOjKXTFGuek0yXTIzvnpNMl1i5ToyXbA1hE3cioM756rXm7edfVLlOjNKkLm5OjNKgmueyoLEFlBC51g2BYIlLZRLDOs6AEuTQKDNlKBLCazoAZ1k0BLCWaECXNKBnWTQGdZFAFttJQAk1lGdcqx3zpJ5/RzrqrNzbClICWYOkeU9csKABLCgAzrOigY3gmM9DqQlQ0ADOs7AJnWTVgoiZ1mtCUUxrOkBWUNFAGdYTYUDOsbAAMazpBVmd5ShQMlQpYvJLrjKnXHeGdZrRTK0zNQNQi0xrOzLQzNwzaJNCZ3kuekMtDFtIoy0MW0y0M56ZDXI24+k520y2MzUJaJNjE0CiTUJQlDNlKgubDSDWWTYAXoAACERjdMbSuGugtiIsKCwM8e8OOe42QpSAS5NAsoxrOyUGN4PN2mCevh3ICgAzvGigZ1g0AIZ1mtFllQzrOhz6cCb6ZNWUAmdZTcFqUxrOkWFAzrOyWUmdZNJQlM3OksBy64ObXQalVjeLNUAXNlSkWhM6zoAZ1AAUksNAiwllAEsFlAGdZM+b0aJ1gllKgSwtgzibNWQuvJ6hL5zvZQDOs6AGbDUsGd4NAqF6AABJLAUijFUjQzN5Foy0MVSNDM1CW0zNjDUC0y0MamjLQxOmQ0MtDFoloi056miKMzeSqMtDOemSzSIo56aJKXlreEtAFuNZTcQ0zVmue0qRdM1M7xoqQ1iw2yNMjO82qiKgmsWtXCN4ua6MjTFJrFNsw2yJvno0yNZZN3I0yNZZOjItyJrGisjUkNXNKgubk1nQqCaxoqCxDSUqCWUzqwce2S0AM6zoAkoqUY3g0CkXoAAEZsKADNlALmw0ADNlKgLktgsBLC2CpTOs6AVnWUtACA1AAzrOyFJneDQgBnWTQUDOs6AGN4NAAuNZTRVAxqUAoMbzoAmd4TQUDOs6QFSxM6lKhbjWbNAAzqUqFoM6xtBC51g1ZQCSwtgAlzoAZ1ktABLClIsM2aIok1AoijK0iiZ3kNDLQxbTLQxaIok1CgBegFgsEmdZNMjTIXI0yNZQ3cjTIXNKkNRDTI0yNZQ2gtwLrls0wNZDbNKkKkNoKgmsbFiLjWDYAJmw1YUDOs6SoW41hNhQGdZTVhaDNxsWUSwlzoAuNc06BQM6zpFhUsJrNRZVmbmzYUEzrOhUWwTOs6KBm5NgAzZQADOs6AGdZNAAShQSwms0sC5uTQAJZQBnWTQEsAKDNmiAQKAF6JUAAkuTQBCWUASwpkrlg9FzoASwqUASwoAMnA13lHl9PlPVZTHJ3ALNCTUM6zsy1IZ1KLYyomdQl0MtDFaM2lmd5RNjM2M56ZDQy0OemjLQmd5JWjLRc+bvzs6tI8vp83rrnWTl6OXYzN844+nh6Ki844duferNQ8/bj6TGuWjHXye0k1DOgAuNQqwWCWUqCoJrNKgubk2zSoFyNXMNMw1rnoqC5DTI0zSaxTUg1lk3cixDTNNMhrFNTItzoAA2AABnWS2CoJZQBLC42PLPX5T03OgBLBZQBmw0ADPg93jL7vP6DzcrT07F8e+PoTprn0KsgDOsbAVnWU1YVKJ5fRys13JZx7+U16MaTnxepWN+Uz6NaHn9HkHfpizYgDGs7CUY3kWaMcdZXh7ePU5cmk7a6eU5uyu/Hr5pcZ9HKz1Z354zjvq3pw9PhTtx7U68u/jNcfZ5Tr6CEspZQBnUKACXOgZOfl32NdcjPHWzrnWDPnvU66kMcb0OmkMcWy9s6GXEduezceY3249iJyHXn0NS8DXTA6SwoAJZQCWUAA2AABjeQ0MNwxbTLQznpxOi8jpOXYlUjOg1kUAGbDVyLePQhTTMN4uTdxTGO4jOjSAgm8aipDWLk6MjTIvl9Mq7wjfl70zvns8/og15++TPXIvLoOW9ZOjI0kJvnTbI1lk2xoqQ1lk3ZVvHqOXXG0nD0F5zplNc+lM7hUE1AvLoPO3utohnWa0ABnWDYAM6wN8+g5dAZ1Tl1By65M9Oey8e2Sb57LnQ49LC2UnHuMWwztDRDj1g2gnLryN7BnWTQM53DO87DENazoACNpaAAZsLZSAzrOgBjeTje48menQ5dOmTl6JoZ1ktzSywSwoOc7QxrnDWdbjjrtwO1zoXnwHo5dqogCXOgBnWS0MbzyXszU3INTIa4jszoZuDaUAnGdTdgqCWUFJneDj3xk6OVOmc4Xu5Ds5Q6a4bNsZOuecTteW1pSLUjQy0MYYrXXVjE3mjQzNwmd5DQjQxx9AzeFO2YNVSKJneSgAzZoKMtQlUy0MrSKIsJVMtDBxOusdTM3kWjLWQoijO80WUCNUoAQS5NIKzSaxTTIsuTacjs8/oJc0pC51kWUAS5NAAzvGixZfLnuTLuPP12MgoFgmsaKhbjWU2gsDnOsMOo4zsOWtDzZnVbn0ZTm7U43qXM3lNSiSjO+XUqFuNZTUFssGN5S1VWU52aIonLr5jebsue1PNe4461Ccu3ROHfOwQZ1k0ACZqqBUJrGi5tjlj0Yrje44PQPNPTDje1OE9EPPe1PPPTDh05cj1zGipSS6Oc70809UPK9Y8s9Y8no1QBAoEsKlGdZFlALCOiWgAJnWDYEozZQCTWS8PTzOXfHUyUiiTUItMtDM3CTYzNoxbayvKOiWqqIoyojQzaMaUilmemE1KJQgKgqDO+ejl1RdZsTVyNXFLlDpMiwM756NsU1lDTJbcw3mE3cVdMiXNS3EXeeMT03JdXIa56TSQ2wG+dNzI1lDbI0wKkrbI0yGuejTI1GTbNNMiyQ2kNMhrFNeftgy1o2gqBcaKQsuTSUEJrNKgENILm5NAuNZNACAN2WgAJnWS2UAxrOgBnWTRSWCWUASwWUCVLmzQlAmsbScO8Xlvh2TolUCBKADOsbKRbjWU0FWBLEthbKPLHZMdxWdZTRVlCSxKpYsMbxtAW41lNBYBmw1ZQDNmiLgcA9JQDOs6ABEms6AGdZNAIJc6oICs6zoCGdZq0AMgoAM6zojPE9E5jqoloxWiTQmd5CiNQzWjNoyUKJnQjQzNZNACANiqAgZ1kqDTIXNKkNZQ2yNMhrA2wNyQ1cjTI1lDbI0yhrFNcukXnvWU1cjTNJc00lEoxvOgFksTQAWBKFqU589xOoVnWU1YWgksTRFsDOsbQRdc9ZNwBBA1YKDOs6RLF5zpxT0JVFMalBCwSagqFuNZTQAM2aABDO80qC5uTQAIlqoLAms0xjtg8/bHc0BQzc6KgubCqIBc0qCWUASioGbDSCkig2KAAZ1k0ADNUiwSwoAM2UUVLEXNKgSw0liUM6zoBWdZSgKMqC0w2OelMtDOemQ0MtDDVMtDLcOe1MtDM3CNDLQw0I0MtQzZSTRczWU0tXM2Tnboy2XF0Tltow3DOemRaWNDnqaTLRczeUKIok1kqiKMalLAEFgqQ1lDaQ0yFyrbA3MjVxTXLcGsjbI2yFzTVwNZQ2yNSQ1cjTIaxTTIrI0gJS2IqCyw6ClgsUmdZKCoJrOhLBLk0ADNlKgubBYKBLk2lgQms6AVLlNSiLCAtg0zSaxorJdYsTSCoVc1KhahJrGioW5uU2lVKJFQpYoxvG0ilzneE2VQMazoUAM6zoiwY3hNqUDGs6BBLlLZVAkuU2hahM6zoASwWUELnWSgAlzosCxC2CwAqgAllKgSwtlGbCgAllLAllAIUCAAOgoABnWRy7ecnfGxWjDcM56QiiNQyaMtDM1kmlCwZ1CgqCbxTSIuWTdxSpCpDdxzO7Aa56NM0ubk249S3IXI2zDbImsaKg1i5N3FNMhcU2wNsBvlo2yXWLzTsyXTImsaTTJdMheek0kNZQ3cl0yJrFSoLm5NIKhURNoKglzoWQsuTVzQBmw0QqCazoAS5LZQCXNrSIsspc0oICgS5NAQCUqAlAJrGioioWg6CwABjeC+br5jt3zs5zHU6c98Trz6cTXTh2HPl6SZQ6Lg8/dsXOgBmw0cTs46Lvz9ToImdZNWUhg0wOnLpk6TPI66zoOHQ3nXInbh6AnM3c6HPfE7agl502UkuTQAM2UoAMbzoWVZjphNBbKMazpJRUsSalEok1k0BKXGs6SAk1g1KIoyAoijGpoiiTWSlIoksKsJaMamjLQy1kLTNozVItMtZqW0y0jFqo0jLUCiTUqWiTUiVSAms6AAUDqLAAGdYM6DO4M7xTeQ1y3knTNJvNM2UqUiwllKlJLDXDuMTY56bAhnWTQM8fRk8/omgo8/fn1M2aPNPTF15fV5kvoxszz7ZLc6MxsZ3zMW4Om5RnWDYAXOs6QQtgzvGwFc+nNNhaDGs6QFubChAGdZNBQMazpIRWdZNEAIgoCUzrNSoWy5TVgBUEpFpBrGkELLk1YFgXOgBLCpQCWUqUZsNELmw0gsQoEuS2UBQLA7CwACZ3g0ADNlAEsKADNUiiKM1TDcJNZK0MXQxWjLSMzeaNDM2jDSpNo560OerTLQzOmSNDLQxbSKIo4dLogGN5NAAzrOhLC3NM7xorJdc9RNXJdM0msVNMl1Mk2yNMw1INsjUyJrIqRdZQ0kNMgzSpDTIaxU0yXWUTbJdMis1NMl0yLc1KyNSDVyNMUaxotzDeZDdxS3Atxo0yKzTTI1JDbI1JDSC5sNWChQAOwQACZ1mtAAzZQBnUKACAoAJrOiLImd5rUACaxoohnWa0IAiwoCwzrOgVZnWU0ACXOgADOs6AGN4NUAM2aAAMbxsBWdZTQUDG86QFZ1lNAAk1CgSxcazUBZnWSgAzc0sAQWUAS5NAAlzoAEFgoEuU1YKlJc0oEsKACazRYFzVoECkLESgSw0lKhalAOtlQQsBnWacunE10zolUAQNMjTIrNNMw3M5Ol4dDbFN4CpDTItxTTCN5SujFNMipDbKNM0XnsrNLm5NoKlM6zSpQDOs6AGN4NgAzrNKQoMbxooGdZNBQTOs6FhbjWU0ABENIEsXNzpEFZ1g0QAzc6CAQoAEsKCwJc0oBBZQBLDSUAlzoASwoAFlAJZQCWCoLETTIqUthalAFg7BAAGdZrPDrSdZkusjTj2EuTSUMaDGTqyjXDXI7bxzO7nutSQ6QI1gXj2FiLnXOulzoJg2nnPSzuIoyUiicu3lPSnI7LTHHtxrfTWYJsxWjM2M56YDQyaMW0y0MtDFtMtCc+vI21CXNJqBc9DM1CNDLQxZDSjLUMVTKlmdYNS8TqDN5dSOfQTWSlIok1AoijNUiiTUJZQogKAAUiiShQjWQolozVIozVMtQlAVJZVqUAWADuEAAZ1ipoJy7Qzz60m5RnWSg49VOPH0wTpiOXSdTjO2a5d5ojWS1SeT14OPo5djjneo35vTyq9c08/a2MeX2K4+iWAM3OhZTknQ4zWzfPrk83o5dzhcdjl05Ve9lSpk3jWTWdZNGTOZox1m1nJlN9sFzvn0EE1w7DjvdMY6Cdc0S5NAZ1kwU3AEXOs0cuuTGtZOetUnPpgTQxsHLUOlgASw1AEGOejesU3OMPRLzNbgAoBBrNKgAoEuTQBBZQCWCoFzoEFlKlAAAPQEAAZ1iqok0MVSKJneRaMtwxaE0MtQhok0MzeSqIoxVIok1AoSiINsU0zYmueq1cI1ENsDfO0msDbIsBcUxpTeZk6sDcyLcU1JkdMjTNNMU1lk3cDTIaxTVwN5kNsjUgxuDUkNMwaxV1JDWZDcgsglzSoiLk1cq0yiorTI1IGs0qQiw1jQ0gXNKg1ELYKgINILENMjTI0yNMi3I1JSUEoagoKgqCwPSEAAY3mqzoAzZQBnWS0AICgSwWUWBnWTQAM2UUGdZNJQIksq0gQzrOipRnWDYKgzrGwBLDOs6AGdZNAAzrOgFS5S2UELm5NoKgmsaFgubCgAzZQQsQllVAZ1kpBLCXNgBLk0lAIKqWCWpZQCLAoiiFAE1koAAKBAogSqlEQ0lBCgSwtlFiKgqCpa9IQABLDLUozC6wOkxDpmDbA2wKg2wNzIusDbA3mQ6MDcyGuejTFNSZOlzSohCtIigxrOqqWGN8zYAM757KgsDOs0qC41g2CoM6zoEW5sNIKQuNZTaFqDO+e0sFudc06ILBc3OkBUQWAQS5KQCM3OgBm5NAAJQAQqUqBLKtgqCWUoEuTSCkFlACWAEsqgS5NJDUg0yLZSiFgqCgWK9NlQAAgAzziutlicevE9BSALAQrkOiQ1jeSVDTnTbn0DHQSiTQzNqw1TDYw2MNjDY53YxNjDYw2jDpmsrozNow2Od2MToOc6wzNjLQw2MNDM2MtDM2MTYzaI0OetDLQznoMtYK1kzZsytMzeSTZcNDE2MNQk0MW4NJqJnYy1CUM2iKIqs2gQssLZDTIayNMjWQqUAlAoy0MtWMqIolAUIKABZQAABZV9IuVgqUSiA474j0s6Mc+2TVBKIBnXI49d6XGeoznoJjoOO9jl1lPP3aM8OtNKICUJw75FsOeaOk6cTew4Z3DtNYJ0lMcetLnpxTWpxN7tUCLAADPPdLnXM1qUJRAEFgucDeuey80NdMaOfTGwxTXLqOc3Tl2xoefvC1AQCIQAxz7cC9pQAADG/ON9MbHLOjskNPNs7IKQoAABCoKgqCoKgqCgAAAAAqUAsCwUC2D1JbkAAAACVCwAAAVKJYAAAAFlAFgLBKIBLBZSUAAAEolDGwZoSgAQAELAzoGdQAAELjQAAS5LQqABKAACAASAEBAQM53VAEKlECNQsDGxGdQ59cbAAAAAUEAAAABQAFgqCgAABAWoKQsDSU9Ni5oAABFsAEABQABCwALAAAUAKlAEsEsAJZQAAlCCoKQqAAQqUSwEACAAQsAAQqIAAAAAAqAAAgsAQAQBFAAlgAAAAABAAAAAAUAIAAJQAAAAKAWABYKlAAACUtlPSLmgABUAQqUQAKlAIAAAABYKABYBCwAAAIAAAAAAQqAAQsAAgAIABIsAQsAAFISgAAAAAELAAQUgAIAAAAAAgAKIFgqUIKiAAAAAAALApCkKAAAAAAAABZaebPz1/8QAAv/aAAwDAQACAAMAAAAhCC+BR0M1xlN9d1dBB9BhJF1N9NJV9VZzJGaOGuaCyqGeyCLCjaiF24R4t5hhxx1xxhlJNdxdltNJ5lEFNhFlNFZB08oEd18yOo1Bd9JQ1hp9dR9B9hVR9toBtg9t9rC7q6aCOm2uu2iCSLK/Cu+yurqJhABABpBFdJF999JBhBRtFI9ppR5BVxxM8Awh18MQgVmKXkqFhxBNp5EpFBFZ1ltpRBVh595fiPCvzuRyKPKOve/+Kfvn989JF5JBNNJV919tdpVQ1sdBgBVpBVBRRdMAwBV18ogA1EPRe/5th99FN99N1BVNFlR1xB9tDt+6HCeSCHCGaCC36j+i/wApxdzSedZSScUdXXVbUDONPMBOMMHBEfHEBIHmMOBFfAAALYhJIuMXeKbUfZfUWYVWSaffbQRff/eptjjqgu2mv5iuqsiig2x4ylYQIRAQQUfebQdRPfAZTNLIDfBTbBaZUaADFNPTPLCaXIPgFIffcXYUYWQQQccQbbWaTYRXdU0+zg//AJ9dotbvvfs8PHvN2sUEn0UGEU2kV0GGDyQjDSDDTDhw2DVXEmABAhX0TzyklSgDxhXn02W10G0kEAGUHl33nnX/APDCCiCCe+L6C2+CqCj+CjOf3Od99hMAJFFpBVt9MAc19E5kcsIctUNcAAAAkMR98wsJ9coU88hlR11V1ZxtJN5ZFt19ZjXzzrm+TOPy+ruCeqaCyHWC7i2vql8x1kZ9BNBBh99so419RhVEdM09R59AQUAw9d9sJBBtRl0995119xd9B99B99x19RVp3JL7PnLTGLTTTjPD3bbyhzZtl/FvmdlNZR19J1t9dNgogIxkh0Mw484kQGgwYMAcB9919xttNQ1p1jdxFpBdpxZxjk5d3j/+Du6dCiv+qaWhD37LT7mufndKJjQBN1Nfp99519J9WYSY+Zywq8qKi20eCyo88AcBRhJRBxAwgUgUgd9llBdpp1FRJx5xlz3f73tv77fzLzfP3vPPX1N4eL6bzOrffZH9V51R9tBUoggcmEwQQ0oEs2MuE8cE4ohBDJBBJpppBlRZ1BRNV59lFPTrbt/rTzj3SjTbHDP75rvDHbHHtA0EoMLi2/LD9bdhVd9RBFMAsUIA8EoM8I8sM0yYkgkM4tpDhBFhwptNlBhFBB99t99la7DjXrnDCbXf3j/DgT5sbZRbMfa07wo6g4Ycu+TbHvLDd9ltLllFI5VkZ8xZNRs0cyVIxAIQ99fJBBNBRFNtRBFNJZdJdfd3t/PP/fvOXbvrLDrmznj7fz7bjugrA8Tsv2i33Pnf7/P19195lZBt1JoEoV9skQ40kMkMUwQRvrpBBtpB9p15NVd9Z2li+LKrS+3/AO1xl/rl7ku7K+or8NL/AA8DwyjxDS7jyjy9PMMM8n+mEMWEH3yijHDSDhhByTiBwBjCwmMP0E2n22EXnnGV2WWFFnNfYO8uv/8AXuL7S38Kj8/uC3EUb0ecsOs0fUnI4kkLnOLzjTznnPPzzYNZNxYUgYMYw4NNQ8wMcNHD9999BRxhBdptsBNN9Lnv+PvHPLznvf3PbPXn/b//AP7119Pzn28LY5w7gK4M16188/351/8A8cfx1ygGzwRyDzTwQyThTDS89f21mn02kW1Xl0lXVW0sf/6tcfP8sM5v/wCr+738/IUb88P8LYAussC0XwAoEtoAnMPz37/nD/rbfOufAB5UM0ocVxZdAARz3zR99hB4AlQtNdBV9FJ9Blzvr3PjPbrDjjDHDfzfrTHb3XyHCa70qfzLmIHxj/wvBDTn3PzrHPjTCqDsPRMQwxkBZZNQwNPOCBBxVBZIZVF9hd5JBdFNlDvD/r/Tb3/bLv3Hbzv/ANVwV96M3EI7v704wWAzZ36X8c8wRywzx47+5+54upKIpM6wwZV6zyw0MAQQQTHTFXPaWaVXSeUVaf8A/wDzL/n3mL3PLjz7djZ8rFtDQX0A34+Xr/4whk8E4Mw41MlhwVk0r3nHvLzjbzzLXHbPPT370wYBBBxAoF9pNNpxBt1NBxB3lNf5H/3/AI++0xz0+088e9aQ3P5OCwj/AOf8NueQiQBjTwEDnzznyxG0uM+ud+u/tfvMd+udccAAgMMP0CFWlH31UGmmfl101PFOON/d/r//APL/APzyV4QUxSS/ARPI3P1y8wQJ6KPIDGJMMBMACIJJANbST8Y08677smtj992zCMKx37SEOCeHUWTWWeWfcQf8SVYd+2+8/wDuusNONcMEcWG9GPDFOQ9esMnR1gSTggyxTyjBgzCDhDQjBjDDTiBCDCSwc9eRjSz/AP8AwUIICRSQTd548XVcTa0YSZc81/8Acvt2MtNNf/8AzTbnfbDLHrL/AM56w5aFFCKLMGMMIAIAFNMLHPEMPLNPIKAINJOcCMLOF/8A8zABilH1lk8OG2Xn0k9Wlf2sN+s9/vd8Jcl31knS2gT8lXu2tMON2CTwTCTCiyTzRzjwgCQQACSwyDCRCTzhRyhTRjDjB/8A/kwQoMcl1ldlZV1JBBN99RcpTInzPbn/AL097z7xyQ2yR7857y884156lDGEOIloAsCBEBPPHLPBIANEEPKHLJGJGJMDDGB841SAIOfJfUQURbddQVYQWQ1Yx83/APMcvff/ADzTxhAhjFLNNHtL7xzlNgcwl1GruLT9LJUJgw0YMUE8UAY7p4cIgQwpjPfBDDDXYEMQ8cdxBBhJJNRx5lBHZfjVb37/ADj21zR8TcdOhtMwDK1JxUO8CBJIJe3wzt+2/wDd8/iwzwAQySDBr/HGDTjyxO88MWsMM+sB9vu/ccfdP9/fttNHmHEEXhSz/F1++pMdstM88NP+8ONf8MfuMdoiixgwdse8/OTAQSASDBziD0HXs889s8PetPPPre8tOtsMeNPtcbpKIaa44r6LLpLKoYY5LPWSjTgBCyAhzAgigSTiyASSiSWO+ttcMMM/8s888cMMMc888888NPP/AH/Lzfeqmb3/AP8AMOd//wDqiu++++q+u2aueqiyiCSigMs8k4EcIE8xEcQhFBB54wgM9njbbfqiGKeGOn7H/wD/AP8A+xx5x5088sMCCS3+OEcavD7jGazzSyyGe+ee+i2KCW2KqCCKOOGM4EIQkgMwkZxlPzzzz3/Dzz/bn7fm6Cu80880l5RphxgACCiKCCSyw8s8sIAwAcq/DDCaGKeSKC+2yy+uCSq2e2CC++2SwwkMgUYwM4MxHfnbzi/zz7zzzHbzaOiM88wQACCAMsIMO++++6++eGGCS2Syy2620m//xAAC/9oADAMBAAIAAwAAABDJ6odLc/p45/8ALbPDr/znbjZxbBVtp91zZKC++e2yOCgCK23KX6G9GAZo/wAVa4wb4wyx/wCd+Yaeduc+us6src88J4Jvdtf/AH0+Cw3+aeKnabTjj73r773v3RwZVYRZFrGrCmC2+Kq644G+unHrGSOCKjqLh8RsJrBDfZn/AP8AYtNMEKcc8NNe8etZrJ889MasQyRxd1slGGr9o95t/dIdoe++tOcfnE3n1kNJuJ8O4kIpPbIfIv6ZMPvkQM0WtEMs8N/X7OdapKcrPYJfqor/ACjGSWPXHGa/cogA39XklIDTDH/X/jv7PDXRHnHJRB5tzpaqb+uae3y6uuyPaTqer6T9z9ppHVrLDj/zHXO3PLDLPbTDzPnabrvrrRz3XHvccIIuPBWhjGeDGrz7e/T/AIzwR1xzbQVdfwepitoqthygqzosgqnij35zwmYQBRBXwQ1+6w98wk/ms771xqxqq6vsrp10191zJGIfqy4Y5xuwo72k6q3zw/8Ae+u9sUU0nFVsPfKP/wCPXC7237z/AHz6f8/b6STaRUSwT4yxw7s3/wDddP8ATz/v7CbyGmybH3LWfE8sdevD/wBzw50x5x2+x/3zq8xdXfcWYX//AOIJpYbb5vpz5Q6oCPr4/bfc5331UwikUWkFekZv9e65utd9tucZsYf/ALzjjPeb8skd+/PHzv8Am+98y/8AcPtd+sHVdHVy+8ctu7LsZ97bvzRqCTZAfr5ObIeqHzkGR3VGkEG33htdNrVqNI949/6bfLPdcPv8/nwlEH95bsrIupP88uNsONOUalU3FW3cnsM/vPeocNesdPJMdPbCsTikcVeH2807kV05GFK2INcdMqOK+Pftuttc2PdcONvaFFnW1K46cpIqwu/t/dtc9p/1S9GNNvLuZrk74ebqoI1MtMtdFr58MUY9swI2Wb+m1Ukl012EtWMz5mN5NXUW3vG238etcNa13WWtoMdftu++Zdfv/wDjrXdH9F9JxP33PbJzTr7TnnL3HmXHpnHewdgTD6TPPKHxFFslFI0T3/DPVHPjHL33XhPlDz3zPDeRz5VjOq/y/euoLbX9RT91dfD/AK4d1zyy77t3zx8T+U8zRV6Q+X9m5pplRII9+wKqeVRPJGgFx03560+97y6z36++b49516xqQ5UZ7k3rv822X5x1/QfdTSg7850y3/oy54w3VVzczpX82TjTGiaumPjj6hCGWx/17+dYTWxFMOSEM8C3qqgo9y5ajzoy16NXyQSZtini/wBNFu09X2VHcUeG9c/+eMYcfNf/ADPEZxpPRx2lRwaFKW9uNgYv3PPbLLvVR5MlAwVWAknP/i2b3n/n3/f/AN90xG16Va0uq71z67adbZeiXlq/u3ks3+/xGYMM7EIbnWJK/psVmQqsjgtjlGllgoRzw+y7Y1UM+NIdMUZ5B/8ANtc/9duOesvNfR/9UE94It6M5OMON/FlkENOIsvN9vvei2GQvYj37mzp/p4VZhIJS5IH5lJrJalcxN9/M9eMsfcsn2yAj3mP+UvOsgyf9M2kScfX31uOfffuMdeDn33k+N97tstev8d2ukeMXce3u22pkU1r0h2lZNGFeRLl7UFUcsOOu/8A3HzrFs5Zwp9/zPT7Dzz7DvDHnP3RtZX/AD+1xqxaTdTedW98/v8AvMuNPsRdGxfyXvYGrpXbI2IX57TJqDb3bpYa/rKlIEPPOtdPNNdscd6HQTkVWlmizRnHXB/v+3XEMaMNLt7eqkVXX1lnUNuPfO88ZPdOPcOcvcMOnC2W5icSREYRnW/y4G9FE7M81uf+O1ucdOeff4kKBW1Uw3Cjzx32wdzD30354p8V6TAknFWUn01WPuteMued2FEttkuvkMGsX+n0qGZKXAmt9t9a3u3HOH8WGMp20WW3sfpIp/8A9xT1+mncAOC6yxmep59GnOPWbYJ1xphRtptxDDXLbzjrgd1/btxd3Nn+RnHpGxS+92cfXTGKrWyymWqKv+HH27e2p93vnDXfu+HbfHfffnflKOWBBBmXD6BAwlwNptt9xhVrplDJ7fDPDXHbbzLt2J3hTXQ6Z6+V4r7bj59lSCWqmuO36naCXOerXrr77nfjn/rfvrjHTbt2u+DDDsddQ19V9V9BB3hZ9NnJPfnnHnqrLHbHzT3MjfR7v9Cv6C1mJFlz/S9Sy6aiV6KAmCySaS2yHnLFDZjbllMA0Ejz/NOf/rHfUdBX0NItAE4wRRN9RH4dt8L/AG72h+53+63bka7d23Z2TjzSke1R78i3phomvcceYDVXgTro4ihqvkutnpmqonnSYSr+Y/8A/vTmmXihmFC9J9U1GFGt2UVjetdd7MqBfsPXynXU2FCEAW08me9+c3WNp7a7j12129Pe9/qpKKLo7LqKZbaa6rZJsZJnXXt+eUUm+oIDli98V2UEF0c2mPjMNru81ML1yF8+u8MKPoq2tsUsWeWduY7PVHl30knHlHV3kkk1LF4JFMH/AH/7nltZkSu919jDTdN5rDfKBMRJ5d9V5V9dhZ94y1jjbrKvjSRe5ZZ3t1PxBtjBefLfRN8yf5J1T3tXF1t1ltFhodVEpdplxT9BJZx9ldBFV7PbwdhXET4RV5tRFJJpNhxBzUnH3LmPL6bb/NThLDyHZ39DHJjZ1rRfP66BAQvWXai4a4h0p5pVNVZNFdN2kJ9ZtlZwuTnYz/8AxgX912wwMBOJXeNO7u76S9P25C9g849z5v0Fw/1uFBiRsjUlc3nfrojqfLyq3yhx87kqtaTfcdXVUeY8gGNVeefZp38xY86y1/Tging6z8795x324wYADMEBWXfmENvh3tlRbeTXWZfUcYWYJIEYVKil3dShlpsjkedZZQbTdeVTMGOnnrujlm843y5m7y03zg540749jnjqsulsiuhjttioOkvFewnthq8j0aWbZTRa7w1+4acYXOxw+++0w0r7wwzxw88xzz7z/wC/O98PvNs99DA49vfv+ud//wDWKu+Oi+6WumHeGquOWiywieiqO+1Zl1hIhRlQEANgl9V9wj7HffOaGKeGGL3Dz77/AOLzx3xaIPrrgMoi9vtOjj1x2xljz4jjpikitut2zvl356gsqjjBDrvutxeafVVDBA/wwx+8z/xz1142xpsrMCNMOGRRV3zUMIunuomoijIJNKCMksKEt0/4DBCkvmJsijjk7k/5pk6/wPsioDvlq/7/AEkkUmyZNdetI8NPf/8Ar3XDWqaOwAMk86Swss4sq62ay8i6WGGCuKuOO6mKMw//xAAkEQACAgMAAgEFAQEAAAAAAAABEQAgEDBAIVBRAjFBYYESIv/aAAgBAgEBPwDAg7HQ7Rh4dBQ2fWajhWo1Nxb82+MDQ4cCGDoN1B9IhAB4FlaTgQ0VDgYRiqKqh0rjNvpDM+v6iU59J8ELhGh7PwKi4sPQGwJBYhLn+/8AkBcIwbLZ+OM5MGDB0HQ+Nx6xkaBdXPeeg3B4n1vjPcYPvoH3usrSB4fCcCL1Au6vePscHBwVgkIDD8LB+woOVcguYMGB+KGCHAyMnADwI7GjnwVh4BgoS+Hxk8I3mDIscDIyavJyam4wdI4BpORdXdGYI8fjJwNLy49jjwzGcM3fScHIuankWRY4Gxa3danxmjq9YuqLJydCisNY5TQXPEdBwMChwO58RoNSisdgsLHAscCowrnAwNA9i8uAxx4eDlxx6HR2ENvFhsMPohYZOTgZ/A3j2oyotpERnlRGIwguIwA1WFAKio3nkHEIbPecCosau7w7uPLw448uOPQKLcIbLCqdBwMnA9gMvc8vS9Zw6iiwfRmw2i53ixqcDDobuPa7OOOOPUOJc5qekcJuNTw7PgeHGcOOOOrq7Ozjj9EoqKDkODqFxU8bjw8OPQ49p4VhaFhRRYEWVFhVUWVUYXpFzi73CPD0HAjjw974htRiMRiOFQ4GfwMnUMnAuaHAqIYNa0nW444444444444444zGfkxmMxmf6M/0YzGYzGY44/0I/0I/wBCP9CfwT+CfwTx8COfwTx8Cfwa2PiMfEY+J4+J4+J4jjjjjjyhliMRiMXcccccfozR2ccehx4cdn6ImA+gPU+MmOOOOjjjgNx7Nxxxx6SdLhNHHHV3cJ0OOj4ztfG7OPkcdh9DE//EACQRAQABBAICAgMBAQAAAAAAAAEAEBEgMCFAUFFBYQISYDFw/9oACAEDAQE/AKviyj4E6Lkde+4o1P8AalGGD2GGRpVhQoZFDpMKORRpc8G7wCJyNDtmso5u57rS0tz4Jy+NZg9IydjHwTCjDzDHxri9B7rkdoo9EotHW4GDQyepftuv1kUNr1zqFSNHJrappKFGFCnxCluSpu/3BvChkXyMnQbL6xyXWVMTF6Di5fMO1bopkFbMTPj0dxzMncR6F2rCpHtvXMn+CeuZOsxKORR0Oh2vSegZnfKO4o4sKkdhHSRyOk7bHRf5RhRyKOhxcXa947t5eXIPE4jbK8uZnaI4mr5qeAKFHFwMrHhnxBRqaDQeCfEFHplHsmb2DcYOLgUPBmbrPFGsjQq73U4HRcrEsbnWefdxg4Gg6p3Tpc+vIvnX+FuS5S5oP8o1+amJ0zEwYR2HgbSxLEsepYliWJ+pP1JYliWJaWlpb7n6/bP1+2W+2W+2W+2c+5aW+5Z9y33W1LPuWZZ9yzWz7ln3LPuB+XuWfdbY8zmczmczmczmc+pzOcLUtLS3/KrePKn8+fxP4H483n//xAA6EAACAQIEBQQBBAEDAgUFAAAAARECIBASITEDIkFRYTAyQnETQFBSgQQUI8EkYDM0cHKRQ2KCkNH/2gAIAQEAAT8C9Bei7X6dNqt+VtW1y3qtfT7uo9qt+StewtsYRBHMQQiEZUVLlZBBBBAlqzKZSCCpbfZBBHkjyR5KcNSH3Ifc+SNTm7nN3OYqmBSampqampqampqOcNTU1NRThJJI8J8Ek+CREkkknXCSSRkk2K1W9fSVjtW79RWO12u1itp2tXW35W1e13Ld21fH7uo9qt+X9WvZi2t+X9W1bXLeq2r4/d1O1vy/q2ra5WvpcrXcvUggggSIIIIEiLdTmNTU1NTUlks1JJJGSSiSReovRfpMVqtXW35W1bMVq3dr6XU7K35/1a9mLZW/N/VtW1y3f3bV8fu6j2q35/1bVtdT1+7X0uVvW1it62u1itXrr0V6i9F2u1itVtPW35K2r2sW1q3q+7aun3dT7Vb/APU/q2r2sWytXvf0ratrl1+7at6bqfarfm/rGVhV0+7qbXurqdretr9N2sVqtVqsYrHvYxemxMkkkkzEkkjJJJJGySSSRiZJmMyMyKWSSiUSLqSSiUShtSiUSicHsxO1bu19Lqfarfn/AFbV7WLZWr31fStq2up+X3a/dTayn2q1e+rHiuakuwtirp93U7Wve17Mp2t62u5ek7larVZVb1sewvTYsJWD2MqqWpRi7Xa7lasIIIQ91hRVRWpRCIQ9hJdiEZUZUZUJasyoymVEDWxlII8mXyR5KdkR5Ifch9yH3Pl/Rqa9zmOYcwxSanMcxzGuZnMcxNXYmrsVTGxqSS+xPgnwU9fsnwZvBm8Ej91JJmM68mYzCehJJKJJ1ZmQ6kkUauSUVfElEkolElLUEolEoknW2rYVvV21XK3ra7larGKyq3rY7WmKetzEVMydWLYq2OHm2YlAylyrnjKwYrVat3a90VuKTg0xi9hbWrd2vpdT7Vb8v6tq2dy91VtW11P/ADa/crXsxbWypwrcuCmmMHusIIIRAkiEQjKjKuxCkgggyoaEiCDKQRqQZdTKZTKQQQR5IIIZqa9zU1k1OY1OYcmpqakvDXsT4J8GbwSJkkkjYmSSiUNolWdbH6jwfuSGLYqY9IdjtZnRJU5rwYrVat3a90cTcoqpiJxewtlat3a+l1O1vy/qx1JdR+13Ld21bf3dTb8la9nbW+gqB6bFFPXF7q17Ct+VruVruVvXCviQcOqpvXB2u1iugghEIhEIyoyoSIII9ZFXDlzIqe+HGVWjSFrimO2rYUTqVV9EUrXBitVq3drwXDUCqdNcTKwewtrVu7Xurqfarfl/WNbFRJlVNFVy3qtr6fd1O1vyX1bVs7X7zP2IEsfkrathW9bXcrX6fUrrVJuUUxe8aqkjh15hiMyxfpKzr6jteEkq9jppq3Fw6UNazgxW029Xa90VUdh11vSCjh9Xg9hbWrd2vpdT7Vb8v6x4i1TEV+13Leq2rp93UbW/L+ratrXQmU0Ias+X9W1bXdbXcretruRXSUx6DxqozVFNMDHsUUtV418XVQKzrarOvqPCCCMIIRlRCIIIIIGsIIIGiCCCCBIjCH3IfcjU17kPuc3c5u450NTU5jU5hSampr2wW7JJJ8E+B9CfBPgzeGZjMUe1EmYzIlHy/olEocMnL9FT5WZl3JRK7kruShRLJsq6fd1HtVvz/q2v23U2/P8Aq2ra5bu19Llb1tdyGpMnnHr6TwjXH8a9br6jtfpP01at3a+ly2tW9Vr3Vy2VvysgqSjGEQiF2EtWZV2Mq7GWnsZUVUrT7IRBlRlRBStCDKQQRqR5II8keRojyf2Q+5D7kPuJEPua9yKu5qfI1NTmNRzBzHMcxzHMKTmOY1NRyanN2NexrgpJfYl9ifBJOpJJJmGySSSSRMlGZGZGZE6kkolEjdr9Z2r1Ha/Sfpq1bu19LXsLZWrd2vem6n2q35W1+13Lr921fH7up9qt+T+rav8Am6na3q7XcrXvaxek7lfBCIRBBCIIIIIIIIII8keSCDU1Obuampqamov0Ltdrtdyt6u19LXsU7K1dbXvTdTsrfl/Vtftdy6/dr6XU7K35O2rp93U+1Wrd2vpdTta91a9hW9bXcv2Jeo7Xa7Xa7lat3a+lr2FtbT8vu1703U+1W/L+ra9rl1+7XurXsU7K35O2rp93U7K1b1fdr3V1O1vW17CtVrtYvS6/qF6jII84wQQ+5D7mpqampqajk1NTU1GamvYl9iX2JfYTfYnwT4J8GbwTqyTMZjMhtEkkolD2E1CMy7kolEi62vem6n2q35f1bX7bqev3bV7qbXsyj2r6tXvq/q19LltZVUqVqU662JyP3K6na35W1bXK17+mv0bt62MXqP1ZMyHa7lat2VOFJwMzTdX9YzU/8iOixreWiqrsj/GX+0p66j2FsQiEQjKuwkQQiEQNaohEEEEFK0Rl8sjyR5I8ka4a9zU1KtjXuc3c5jmOYU66nMc3g5/Bz+BzNJzGpzE1dhtw9CmYRr2JfY/rCiqp8asl9iX2OJU3XT4ZPgb2J8HAqepPgnwSJzxV4RJJJxXmZw9KSTMcevTKt2UctKQ90ScXi5VpuySUN6CehKJRKJPkZkSiUShu5W9fTXpdbVY7etj/AFNThFFM6s4u6Oitdyt6s4zbdNC6iULBuFJwv5vq8f8AIqilUr5MpUJIewtrV1+7Xurlsrfk/q2ra6nr92vdW1bMW1nFryUScBaN98GUc3EnB7o4lWWhs4CijHiVZaGz/HWjq748SrLTJRTLXgpwbSUnBWep8R//AI4cTi0cP3ODh8Th8RTS5PfxvrF7CwgjDqaEIhEIaxggjCCCEQRqQQQQNEEGXyR5P7FjqampqampqampqamopNSWSycZxknwT49Z+pXTmpaKfzpRlOGm+LqO13K3qzNU+LU6R/lp4tE//OH+VXl4cdWPhU000viNsopSWmFbT/yVO1KHxqn7F/8AIpdOqFbT1+7XurWflelHDUsoXGzc22PG4uSIUt7I4VdVTqzUw8OJWqFIv9RU6aphdVhXpTJS+Lxn2pKKHSvc3hxuI1FNPuZ/pZ91bk4aimJm1+6m2v2sWFdaoUn/AFFcbUoebi8bLMqndlPUTq4lT6UnFo/Gvc+xwqdJK+IqF/wcSvjpZnp2RxKquJVw6I81GyK+KqXCU1djiuvSanPak47qrdPD8cxSoSRXxFR5fY/6nNnnT+JVxPy10pLYppyqD8jnJQteo+HX7vyf/wAOK6uJFC2YkkkkcbiZYS9z2KeDzTVqyr/aq4lVKhPT7Z/j0Qp74vYVvV2uzjcX8a8lH+rq5s8LycJzThXxI0WrFxOPmWalRh1K640W4/8AUrXN/RTthXXBm/yOygWFdcfZVwlUprZwlCxdaR/qFMZWJzg2lufl8YupLcfG7UMTnF8bhLeoTTwf7JS0uNUO13K3qz/H4lNGemrRplM1vM9umH+XTVNNSUwfkq4rpimF5x4lP/VKdqjjqhcGpR9FCy8JLshW09fu17028Rxw632R/jUJcNPq7OFz8Suv+kfJ4f8Aicd9qMf8rXJR/JiUKMX/AObp/wDbhTt/dr9ytq9rx41FVWV09HsRxq9KopXg4FGXP/7j+ZwuLRw6ctcpoirjVUVRFKeC5v8AIrn4pQcStKpRqzhUQ6qqt2PY/wAWMjq6t6jrpnl1Z/j0f7dXE614UQ+PxZ36D4ynLQpZw+HlbeHD4n46uJNDlvQy18TWrRdhKeK3/HRYT/1evbQdSTH/AL/G/wDtpsfpvpjU4pbKFxXVmyp/Z+Op++qfAtiurLTJTw51b1FwknLbeDcSU/knMkiOLVvCEoKnCky1vUVHEfuqwbhGR1a5oPxd6mxYVOEKqjdsdWbYpG4Q6a6nIqa+sYNwjzUflT0SZShj5nBk4cbIoUXqzr6rNTXsS+xL7GpL7EvsT4J8GYnwSScr6DMxmRmRmQ2SSiUSiRO35MdFDculWPpjxeEuIlrDWzFwapWevMVbMVtPX7te9NrhppnCdfB5XS3T0aKap+LWNObhOpZZpnRoW+EVcPi1VKmaahYceip5XTumUV1vfhxjxeFnhpxUtmKrj9aKX/ZR7bfkvq2rZ3LrZXwaKqs3UXDppahYv/G4TcjoS4dSpXQSy8OmnssK+Dw690UUU0LRY07WV8Kivcp4PC4cuD/GXJm7uyq5WvpjxVNDKeJRHuOmFamkorW2NezOH7VjxellSlFLjRjFg1J+KHKSNRFfQWNfQWLKN2fjpx641VZVJTXmWw61TuJzj1/TvlqJXcfESPzeBVJ41OBbWwQQJIyrsZUU7tMyoggymUgaII8keSH3K+WmWxbbmpqcxqKTU1OY1HMo1Jq7E1diX2JfYpmCav4mZ/xMz/iT4PkySSSSrYkkzIzIkTMyMyJRKJWYzU9yUSiV3KmsrKa1USsZE9/u35/1bVta9hbWvVVlCy0pErGrpdTbUUuVjC7Dv/GvOLUmWLGk7mIakSxakU4s2qs64ulMgyp4cT2s4ftX6iqmT8PkXCjcqUuEKmqdGTxFuflQ3mYtsGK1Y1U6ytz8se6kVdL6mZdx8WjufnpPyv8AiKtOO9vGqzcqKFFKVqte6xrry5dN8Vsrfk7aun3azhNtu35f1ZCK1ys4MbEIhEIhCW/2ZV2Mq7GVGVdiFJCMlPYyoyoaIRCMqMqHSoYqVBlRlRkRlRBxHCOFRpLMpl8saII8keSH3IfcSIfch9yH3Ne5DNaH4E56mpzDk1OY1OY5jmNTU1JZqampLJfYbJfYnwZvBm8EiZJJmGyTMZkZkNkoVdJmRmRJJJmQ2ZjMiUShfqnTUnoUUwMyUipSxYrVa+HQ3sfgpFwqF0IXbDixpUtxNPB1JdSrizpSU0Qpe4rV1te6xqpzKCmp06VGemNxNQjMu5mp7manuZ6e5+SmWflpFVS+uNT2+7JG3UzhqKbfl/Vtew6EzJUtmf7iM1RnqFxGfkfY/K+x+SrsZqyazNV2M1RzmWruNVrqLix7kZ6TPT3JQ9mK11pSU0uty7H0uVzSY6aqNhcbuj8lI66e5NqaJXczU9zMiV3JUkqx+k7aqkh1OvRFFEeov2FitVvWxZ63voVpbbi4KhH4X/I/B5KaKVsirZitXX7te6s0HQoYqND8aPxo/FSfhpFw6ZMlPYrVCFVxNpPx1fyHRUo5upHE7kcTuRxO5kfViRTsrfn/AFbVtdTthGPyf1bXXEGR1blFKmqnsfjpPxeR01rqLiNbo/Mj8iPyodVVWxRw+9r3Vr2KbeuLopfQ/FQPgruz8T/kfjq7n4qu5+OruZOILh1dz8L7n4fJ+Hyfh8n4vJ+J9z8VXcjiI/I1uZkZkfkpPyUn5KR8RH5fB+U/LUZ6zNxPJm4p+Timfin+6xcJ9RUpWL0H6zJJJRJJJJKJJwr4sbFHFbeuDxnBitpt+Vj4aFQqbavaxbWrr92vdWvZlOyt6sezOHEZm9ShS5eFXT7uo9qt+f8AVtV1Htt+TtrTzyZ6zh0vd4vYg/HR2PxUH4qBJIpt62vYVvW12sXoNwVVZuhlci4Pk/FSfipPxUn46TJT2Mq7Yv0l6D/SwQiEQZT8RRSpIIIIMplGhEeSH3Ifch9xJ9zXuc3c5jn8GsnN4ObwcxNQ50NSX2JfYnwN6MT8E+CTMSJ7mZGZGZGZDalEkruSiUPYWywnFPmqwfBpmRYPp93Ue1W/J/VtXT7uo9qt+VVr3VtW11O1vyte13W1+tV7jN0QqNbX6zF6D/VcTY4awdrFareuDcKT83gprVSlD6WvYVq62vdYwiENaMWyIXYyrsZV2Mq7EKWQjKjKjKhrYyoyoyoyoylKWVGX7MvlmXyZfLMvM9WZfLMvlkeTK/5Ma216kPuQ+5D7kVdzXuLYh9yKu5zdzXuQ5epzdyKh5ieKKurMkyKu5zdzmObuOTU1NTmNSmYOY5jmNTWTU17E1diX2HsS+xL7EvsZvBPgTJ8GbwzN4ZI2SZjMjMiSSUZkSiUSSjMhqhiVKJJRKJwb9GbXZJKJRJJ1/Wu13K3rjxHlhI4dOVD3Vr2FbT1+7XurXsLa3iPVo/HUlKOH+T5bYvp93U+1W/J21dPu6nZW9XZNJKfEVrup2t62u5Wu1iv0NMYIRCIRBCIIRBBlRCMqMqIIIRGEEIhEEEIgg6/o36Ttdyt64tJrUpcV5Z0HurXsxW0/L7te6tewtrXpxKhcVTFlXx+7qdlb8qrX0+7WU7K1dfvGtSjIymjW2rp92sp2t62u5W9bXcsK3oZKmJ5VqUV5vXVj/Tv13axWq35Y11RocOiNR7q17Ctp6/dr3ptezFtbCllfvpsfS5bK1e521b0/dr2Kdlauv3ZXsUWvpa9hbW9Xa7lb1tdywr2FxPBVU6mcOmP2pmVEIgykEEEEEEPuQ+5FXc5u45NTmOY5jUUmpL7EvsS+wp7E+CfBPgnwTqSSSiUN7EolGZdyV3HsK2nra91a9mLa1uGyinWbHvTa9hbWr3VWvem2rZi2tVjUoppiu19LWK1Wvpcretr9GpKNihdRft79J+mretrxhEIa0EjKjKuxlRlQqVqZUZUZfLMvka1RBHkh9yH3GnG4lpuRV/IiruRV3ObuZZZzdzm7nN3ObuOdDmOfwcxzeB5oFmg5vBzHMai3ZqS+xL7Go50JfYl9iX/El/xG3D0FPYl9iX2J8E+Cme3UnwS+xmf8SfB8mT4J8GbwZvA3toT4J8GbwZvA3oSSZjMThmRmRmRmQySUSiSRNYTj1tfo1lKhC9JWP1W/1ztYvS62vpaxWrra91a9mLa1bu17q17C2t6u17q2rZitVvV2vdW1bXL0YxhEIyrsZVhBCIRBBlRlRlIIIIIMpBBBBGMEMh9yCCPJHkgaIIIIIMplIRBCIRCI/XO1itVvW12vYW1q62vdWvZ3Ld2vem17C2tW7t6q2r2u5Wrd2vdW1bXK172v9Mv3R2u5Wq3ra+lr2FtauuEkknVWvZ3Lra91bV7X9C2tW7+7X7lbVtdTtat3b1tdyt62v/sBkFVUdRcRmpqanMcxqamvYl9iX2J8DZPgnwZjMOoTJRKJRKE0SiV3JWHytfS17C2VtPy+7XvTbVs7qd6vu1+5W1e1itp6/dr96+ra9rqdrVu7fla7qdretruVvW12v9t34hVBT7fTmzTBWrCEQiEQpIIIIGiCPJHkjyNeSPJD7jzyuY5u5zdxTqcxzeDm8HN4NZRU6syNTXsa9hzDNexPgzeDN4J8C6kkkkjeq0J8E+DN9mYqfKxVaGYzozryZ0Uvf7MyMyM6MyMyzf0ZkZkZkZl3KmjMjMu5mRmXcbUFLWVGanuZl3M9PclCe5K7kozIzLuTzEolEolDZJKJJGU7W9bXcretrtdrtfov9SxVczZrW8KqoKK8zwqrSE5RXVlPyaYSa1DM3YQ3A5qZTsK1W9baulr2FssFrXjTvV92vdC1rsq2eNexSoSwXW3qra/a7qev3a/f/VtX/Nr2FtarIPlhGLwhEEIaQkQQQiCCMIwZBBHkjzgjXuamprhqcxzGuGpqamuGpqampqampzGpqanMamprhqa4QQQRhBGC/QcR6Cpe5TEYcRTBTSlg1NWHEWxEbC2Kta4EoOJ7Th06YVrQoWmCtWGfUpc1lbhCzblDlWVWZ0VVLI4OFOTUexQiqqBOuSner7wddU6FNUrXDiOIOHUsXxIG+XB6InNVjmSk/JTZ1Vtftd1Nvy/q2rp92vZi2tpt+Vr6WvYVvW12sX6R/s9VMip0MmFSFhGFakpojDKpnCpSLFLBWrCrh67lNMFVGaBlChWPGrY5YMpTshnQqqmNBMXUexTXHTUqzPUWw+aoaQiv2lNBV7H9YVbFCwqehTTJXSkjh+3H5K2r2u6m35/1bV0+7XsxWq35O17q17XL/sVmpqa4ySSSMkklEjZJNitVvW2qzKipC2xq1qwW7whDpnB01JwU0xvilBV7WIq3Sxr6CaSKnmEoWPyX1bVtdTb8nbV0+7atndTtb1dr3tdyt62v9rf694QiEQiCCCDKRhBBGEakPua9zXualUnMc3g5jn8HMKYJfYcvoLToT4E9XoT4J8MzeGZvDG9UZjMZ0ZkVPlZJNJmXczU9zRipFlRK7kolHzX1hKJwq2uo2/u35v6tq3p+7ava7qdrert62u5W9bXcv3V2u12u5W9bettVy2tXW17q17XL/nGEQj5EEIhEIqWhBCMqMq7EIp2IRlRlRlRCkyoyoyoga2MqMqMqMiHSoMqMqMqMqMqEkZUZUZUZUQQQQQRqQQQQPCPJHkjBGvc17mpqayampqajk1NTUl4LCbZJ8E4ySSSSST4JfY1wlmuGpqamuMEEEYR+mfpO5Wre3ra7XsU7K1dfu17q2r2u6nr92/K2ra6j2q3q7at6batrqdrV1t62u5ek/wB7dr9J3K3rb1tquW1q62v3K2rZ3U/82/L+ratrqParertfuptq2uW1q629bXcvSdr/AHZkj4nYzVCqGySUSiVc7lb1t621WvYW1q62vdW1bO6m35f1bVdRsrertfuVte1y2tXW3ra/0D/fGU7lTKdh4QQiEQQQQQQQQR5Ifcr0RRLRr3NTXua4ampzGpqakvsS+xL7Db7E+CfBm8GYkVWhmRmRmXclCerJXcldyUShvmRKJRKwq2uVvy/q2q6j2q1bu17q2q17FOytXW3ra7Xt6fW1/sck/o69hMS/Q8R9Cjb0uttXoxjCIRCMqJWeCEZV2Mq7GVdhpQcTsjh0RQZUZUQUoggy+WZfJHMZTL5Mvky+TKQR5ZHkjyyPJHkjyQ+5D7kPuU7vUh9zXuQ+5r3I5lqQ+5D7nN3Ne45Ne5zdzm7nN3HMCk5u5zdzm7mpqamvc1NTWTU1NTUcmpqcxqampqamuCJJJJwkkkkkkkkknCSSSSSSSSSSSSSSSfBOGpqamuEEEEEfpa9ihaEmfBuBObqq0sKqoFxEJySfkRuyYR+Uprkm6qpI/IpxbjCuqClzjm7HQ/JV0KK8ysXWxlOvERVVB+VzrjW4pKFLnDMjPT3wVvy/rFrbB9LWLa2n31YTBnRmR1HVBTWni7aqimq1WSJ6jcDqYhuB167EjqqE5wzL/sZjpkRUSIrKVCxeOWasOIOOhQoRWVJFNMIqJUHDWt9XPUVrZC2F7hvMxbFWrKMG3mgppg4nsYtThKKnYutnEfQopgr1qN9ELY4lVVMQiqp1FChHFreyEopkyZjhtxD6Ct+WFTjGpjqY+Y4ftG4HLOFhnNeonIt2PQ1qYtR06C3/AKGszKaYxdlWxGhvasa+gtcIbFThuQPBYJK5XPiQfkQnJJM4Nin9zZJJoRThpY7WpFQsK6ZKeG+uEH40JXqhIy82FXDkpoSwy46YqLV1siasK6dZKY7YVOEUrrgqHn12OIuUzOIOGnmFiqpbw+WDU4VOEJTDZVS2xrZCUIreprBQoRxHCOGupVsUrQXUeqI0FTGHUiyrpY6kiqqUUq1YtTjGKlWupC9JsUtjoMuhsiTWVh1/dGQQQQQQQQQRhDNTU1NTU1NTXCWS+xL7E+MJJJJwkkzEobJRKJWDFautvWyqmTZWQUqELbCqroihRh8nY0mPpi3oU0nQVqt62vpY1JUoQrV6XWzKvTakSizKiNcOv66SSSf0b9J+mv0MEIgghGVGUykISIMpl8sykakeSPJl8sjyNeSPJD7kPuRV3Ne4p7jTfUVMHMcxrO5qcxzHN3HJqcw1UajmBSanManMKTmOY5uxr2NZNTXsS+xL7DnQ17EvsS+xL7DNTUl9iX2NexqS+xr2NexL7YyyfHoSSSSSSSSSSSSSSTjoST6skk4SSamprdH6d2u12sVqtXpVWsVq629VbVtdTtb1te6te1yt62vpa9rWK1fpV6MYwQR+2sVjtdruVq9Kq1itXW1+5W1bXU7W9Xa91bVs7qbfk7eqtdr2FarevpO5fvskrB2u13K1Wve12sVtPX7tfutq2up2t6u17q2ra6na35O17q12vYVqt62vf/siDIjKZTKR5FqampqcxzE1HMSzM+xm8GbwSSZjMZkZkSZkZkZkZkZjMjMjMu5mXcbRKsYraev3b8ra9rqdrVu7XuratrqdrV7na97arXsK1W9bevpr9ilGZGbDU1/Ttmdic4Mo93rO+CCCCEZUZUZUZUZUZEZDKZTL5IfcyvuQ+5k8kPuRV/Iir+RFX8jK+5FX8iKu5FfcivuRUcxznOc5zkVLsc/g5/Bz9kc5zHMTV2Jq7E1djmJr7E1diauxNXYeZo5iauxmq7Gar+JL7ClLYl9ifBm8GbwdXoZvBm8GbwZvBOuxm8GfwZvBm8DJ8GbwZvBm8DZPgzeDN4Mxm8CZmMxmMxOpmMyMxmJ1MyMyJJGzMjMjMjMiUSjMiUSiUIknGbpJRKJRJJJOEslmprhBBBH62tirFhVscLf0aqyaiTNhvg3BmGxN4OuBfo5SJuqcFNUr9nW7wkzYSsW0vUdRS5XpwRhBCIRCIRCIRlRlRlRlRlRlMpBBCIRBH7W1LFSsatjhL0GdZJdRGhw0VbFKwqQ0U0nywerKVoVOEUy36HNUylNDcCmorqjQpmEVVQLXCMw9GLYbKZnCqrKS6mJFVUFDkehmb2En6NTgip4VVQKqfQanHMZsdWJ4Jy3bvWyv2ilkRWsauZ+nDOJscFP0HVFSWGfXB6H5Nf3+rNOhNZTtgxKPQrKaYXpRhGFdLZRTCvexThUpRmdIlmeGVzgzmRl1wqFhX0KacGpqKaYKm3VAlHpVxBTssFrLIi9uBD2KU3uVLVDWgthskSwpUYKdSmqVjUpwW84PYppj1G5YlC9DiaOTM6hU4VOXix6HDbf/AGRH7PGuMa4ZVM+nVTOK09Cq5iIV0az+jq2FTr6NVMipSwZSsanCKaZ/9PWpRTTHX/8ATVMI/P8A+nv+TxHsZmf/xAAsEAACAQIGAgMAAwADAQEBAAAAAREgMRAhQVFhcTChgZGxQMHwUHDx4YDR/9oACAEBAAE/Ia3SYqSosFahitQyym50uzqm6K1PuVRUOoNfVhBBAil0WOiEQtjgIbEPoQ2OI4sBXwiSLESJEiJ+cg9Wdmd2T3ZvdB2ZLcnuJbiQRxfUh7kbsQGnc0ZG4jQhG0dkZqhfjgWZ4Z2HUnaTJdiknYTsJ2E7C5lqS9iWxLYlsM5RPB2HU7iyw/B1wxwSJRAgQGQkIEokbyLSScbnTrp18K0XnDqFahhYyWU2FlDqL+1LeTqn1BWp92m4FT69LtpeoWuqddK+Kn3v6p/LVbp00r4qbn3T+3j3Kl2dKDUghEIhDEkQIEBpAggRw98DsQ9yHuQ9xJyyNx2PjgWYkTsOAewJwsS2Z1Z1Y0rFQIGvvxuk7CtRbS6bCym35pv7U6OqlZT7tN/elnrUzk7U+sepSvQpui8VXfwAf7Kr9FN9W2l0rHU1U6KbPGK7pVDtSehBBBCLfG6TF4dgqLCxUMtp/Sl+p0+oWPFF1M7HqU6Kfos9DxMv1X03sUs9Slepi0XeH4KrPnxV2ZYp/rTYKlXdNyFRZ4y7wraViixlvjsGbHVnVnVj4kUdWdWdB3sJ9mdGdGdWZFhYiI2RkLJkeRJiGR8kMagPD7ETmOY5sAchyIhuSj1hELPTCTLD26f3FQz1KXZT9VnoeJF/4qaflp/bTYz1afQVBicPIqxT6hYp102ipudLuKi0VDt4h2p2Ct4VZ5jnGxwgCwmtvATKmwVqGsMEIhECZsghsQ2OARA0omMAvEcQil0NpZDiOI4zjE4BBnd94Vz2OzHzZPcS3DeLhdbQlQDTThmI3EFG5HZC3ysJG6PifA+InsQszlOR8CdiOB9nB+xvkE7CW2AkJ7iStu7Ow7DsOrHlm0nVkVo/o4PoR2f0NGnexlOiJHCgQTsB6ZcjmGU9jmIbnIcxAURScxyHMiG40jnoSiUSiUXR1GEk4J02jsXiOrVDt4ixltGgVvAtFQxZwKt01rCJCNnQXMTzlsgDNLIfM1A6iwzonPCwsX8AFOERvfG50WuqfZpv70s9TxHpCtT+Cn9F+1au2MYei6fWFydYwQQNmjIiksLQhCjCIEDiGkMiWOI4jgOEbQgRI4CYEkSJAgJZERtqyOzO7HYLkd2S3JiW4m3OQjcQEbiNQjeRuWH4YCE7SdpwDbiwmExPcdg8tnjYkRDQhEdzmOZE5ZnMSiVgrqNPflKxnI+UCxgFlyeFaREGpIiMLCxU2eMBphsRlzG50epT7dN/elljw1yRDpuTnIVqfx02ulVvy/2l+h0+sKhswJ5b3J5WJnLH9dNzotp1U2CpudNyFQ7eAVlVx6lhchUWCosLMIwaEiGxDY4hzWOKiBODszuxrNeRlhFJBocs2nC5KHmhG6lZYsc5VEELoqYtSzhYWUMt8S0smWP5yLGwLnRa6p9mn2avU8A1KFdj72RRTar2v6ps6cJo/R0v3KkqISka5oS1Ili/RTd6LKVfTb8i8S5UuwqVcJORS8xJGzwd6iwS5jJlmDNiaCo18N2eUmSSiRhNEDkJQ3RJYWRgWTTC0soZZSqb3Rql5jTDGLha6p92m/vS7HqeCYSEZHp1e9/VNvRV/bTppX6byXnJKhYt010VKuqLxHSsFTcKeZEsli71Fg7gFmwRt0hpl45FuLF4DsWfwRJECBAaWDiOE4hoQIEMCBJYIYcgSnc7s7s7GRcluQ98QE0syMBwEAksD4nwJ4j6GRoTsJ2ElL2JWdSWxLYkJbh3OWzJbjuGLoyyzGaQ9jqQ5xKbxzHMMqBTw892wvKzyELmRxDiHIhrvUhuZbiaJQy1CfPGf2VVny/GCpf7Kf2qspdO0VRCQxR1CrMVGkQs54PNMeWLKhXdDsKjV5SpKh1FQ7CoZb4hd2FQ7Mt9U+1T7v8AVWfopj0IIIRASZiS2IWxwI4kcYVZ1OEcI4hxmlhbRHEomRI8nZndndl1S7HcNt2T3E946L6oluIdAAOi+CjDsbiHLojcdjsj44Sy6PgfA+B8DNcRc+BPAnadCSCdhISU7CXFjItiBIS2JaDodTqzozIsLhgiRGonGOc5RKInMcxDcRKJWEkjIVDvStaSouflKkqH4jsKmzxC/tTcPWp92n3P6pdj1adXXjF9NdUepSvUpsXSq3Svyp09i8WxTYyynV06BUNZCYQQiEQpIRDY4sJpJDCiNWNcbsdh5jsT3EhLcTbkbiNxAMdsHx80xeFcvEsFam2lUl3am50elTd2p96l2Z61OuoFTfTX96XY9KletU/gpZ6lP46b+wvFelTeLKVdTcqXaor0u9LvTrQxUOhlvlLwrl4tgrU2+JXd6bnRY6pupPcpdmerTqpXRU56b3abnR6VK/PxJ2Z6XjyqmxS7abxZTc+6blTZUVLpa0q7odhUO9DsWeV2JCHuQ9xtuS3xAjcNZMyNx2pR8caUE7UThNAeACQluJ7jsFnoZ1ZHZkOTsGmiJE5DmGUui+NDhHIciIbjqe5JKx95k0OzPQp1dKbnwKn9dLfa/wAp9Q9F4iv7k4SSOz6LXVEkbIfMmrxbgQkpyj9NLsyxT/SoVqdVNml2F4moqNaVrRYLwLCz+CfgaDRd1iodZLe2g2vTxPO2X9vFcRqDUxpbNvkXMJkOJHAcSOEIl5akNjiJiArFvdnceRm7WP8ABk9xLeT3l9yQ9yAjcRuEdzEoCP8AwOyO6OyF0lzssYnYJ7WpPAnaidiOAdWMiytCcASxL2Gollth+aRmgnvHTl1MuobTuXmdx2DaHkxqecF1Z1Z1ZGLbQyCgjsyGzMnNLAq2dDL4iI9CfMyFlU4SJdCkhzHMcxDcb9TlRzI5EcgqLiaJRKJxTQ6TFQ6mtOrxC8C0XkdLrnmOFYFkU2CtTbSi1SGYpCWmExsRmzI3thYOuiA4cRe6LHVL50n76XY9an8lP6Kr9FP66fSZa6oQxukQt3bBkk3sI1NpnjVcOZ7u8UO9jP8Ad8UO+COHXcss+cHJrI0LTCcEDtOM7EKe4eWlZiCC8JkQQIEIhCNhxHAcAjYhEIgQICSI7EMKJARxO2AuR2Z2E9w8lmc9mQ9yHuRuI3EbqeWKnYPhgTsOA4BtsS9iXsS2JexLmxLYnuJ7htvT+Ed6XfB6BxI0mmWpmTLVSwVqbaUSXWW8k9hJw329YSi7KF+DJQQNm1pOEkYl/InyewzuU4LFTdSN76bGOfIXObIUkyyWxgrL4BBQSXWErdJbsRiSZQ7YOmNZZjA09Nbsck87lOmH/wAvqILLLayR8kG1Lp9Z0+mWLCQvhblwnK+RkHWxFlJd2NNVwnuQERN5JvJEza/hNmpbtuMtjO2p+zImcJWwkkJaHWJP7EYqNmnZmo9IwpZoiMUNlkM6J+GCaq7J7iEiXONTYUlnn0GuVZ9rUW1klA1UZshWdyCbMgSYSL3xXqipNAsV5KkQ3FtpkNU3hYnAIQN/sWC3JCKyo3DtpgrKs3sZyb/ePKws0JIBMStjexMyPmMQtli9Q8bizEK8xm5tbi1kdhNIawlCWU6yod15XS70u+LFM3GRopsFQy2n8C7hPlGXmR4G21LiBM1wlCSwy2wXoYS5QnLGM9ksVN1N+qmCbtZzPW6EmbJ/QL0LDXdHOLNFaM9C1JZY67XJhe7ftPoOn1BYZdG5panywSzEWda+EJTD/WGiYHlEjejSCTwVcdH9iz1OWw25v0M5RsK7Obshd2qhzaIGs3TPAh9AmvgZzdZ6ImFZtYRB2TBXQmukOUWSf/0waQ6+wzy9Cy/+7EkkksbRUq7pvxPUaIb2lWdiL3rMkKkiRIB6SExMC84ZhsI7NJ3ZstwQIJ8TItTyOMiNkJQTDE/eCjm55FhYSLFsnJBhchIRPMsb0NtRRLREQiWYoKFLECLCW2RFmBaQrYO/8YnofEnGQnZiJPBZmZdR1Z1Y0xN5+hiGBAc4hoSQcxzI5CG4olb0L0EiB7iUY39icLgADrMlY9IsVN1N+qlbENQxFrVzBmf5GKz26Vwp3Hl3wsG0iJMXTGlJxGGS62nUg5n1zoDMRy5xQJvMozeVL8cV3chbLGXE1CJQrtJ45bNcJwQvm3S+jjQWDGc/chkWDLGELC2/keKnCnPMvV3Oiz5FTc+6b8TkkRSgPMIe5IYzX2xVuMZYmZrpItBYSCOdFmJCQyP2ALJmsGmW4Mnl0kRRjYeyZswJRSXOMwyF7CElYTPmO68UUvQyZgWwW4K8hkEYzo8GshLIhbENiGxA2RwjhItNmvw4xLJAhz9kd2dzMXZ2ZPcJtxyBpMiK4QI3EbiNy+iN4mbPU+J8ToidqwOdqOD9n+DP82XA8eWg/wD2HKOQT3CegdGdGdWdWNk7WCPJ2HYQFxbXA5DnOc3mmE5jmOMZYYucaHIiVuSsCtQlbkrclErcbUBKof8AImTi2botdUq0VdqEcLqCSzx/QVLX7qZ5jxvosFSrszZTT5FlglcyLLNixuiGoQqLMCEgcrvB2IZFdY2EZmjE6kTI0SyMs2pgQjcRPO2Fd+V3VLvSrKxvoV3JMjBCOYdWKOzGlkRYWlngPaPhBNdLlZoZZKNN0EhsJk9ixSI2YzhmlScXKm590/vxQ8mhonbB2Z61K/CmzopZJSxY6aY5EDQQiEQjgEfEMqb3OJHEjiOIV9hwjhHDgtoTaYDhOEXl2LawuM4xBnBDZHGcZ2/Z2fYkzEXsxmYeZ2Z/gyxmdmT3k9xyMAzeg9wTY7kxmGJkh3R2Rl3Etx8D4k8D4C6HxOp0OEbkJ7SdhwYBm2AnuJCW4eWzOA6MiQ5MkUSHOIIY4Mx6zxBZmRI4CIIHPhPzV3VLvS7rF9eovmLJPoWJY2lnh3wy5XgWPQZEEhQYtTTwuyD2Cb0BYqb+1P78VNY9KMb2hbF9KxwjiHEHsyN0iO2phKFR0EkkjRIjyWQlEYsTJpP1R3+CPmOI4iI8tWRYkJ9DPFrh7Rn1GaGaGQUHJzYBOsx/qLKeQSaQCIxvpMtp1EsMdTZhCcNIJNySVuStyTcHGOAcqOMPWC3kSqCoYqLBGRGFzeCCFIWCIIMhiRBA7eY70u6pd1S6bSzxdfWLsyStCMI2LmaeBSavg56RYsJJwvpvfoaa6FWJaCmnRyM7zmZzMQZRJxy3vPgWabI7SS3PSA4WOycCVarJ0trtYa0KvsyBJtj+TCCBoVEryLMiZFcN249ri/KQngVssQscmQ1/qJJW8MuFngXBDiNKG2OOcE20HvIb0C1MayMpw3ZGnE9Ck8Zkepy0W4iexwE9vwYo/wDw4vRNoN6zGnnFuS8B0WC8rZ4I4UBoRI7nMQ3GkkosLiK00MLCxU2PunV1Q0202pGyd86fQLHVN/ij6B6VK/InlbMV2lbBkV1h+fwh4TnKosXaqtU/iqGIZU7HF6EG7zxvEHdDYXsCVuWRFny6XZTeLKddOmmwtp1eK0zG5EbFiNWOZ4faNQgcIhbYkRjrQ7UtaS8ruqWiEQOA4BpI0aIqW2OZSI0IkeTszJqzkEyuyW45pzcUEFG0RuR2Eayk74KdqOBDTyE7MBzSW4dYdhkIdw+LIbP6I8nvYhynKMRshucY5kcgylnoOrmhK3RDclbolHoCUMx5cGTwT0KII+pTOOjGcfWwWK/IdH7xUNHjT/FN4VKup0UuwqVd4vMW8hpAuzvxHTrRZS1ouQvK7ql3pd1gzOVNaws8gtzEImeFxs+1N4sVMJ7YQQZYmFscBwCPgFXxHGOEcLBXXgTbQPYwEjQV9jjwO77Oz7IcmuLEd/sf4M7Ps/wZmRoLASKe8QD9Qc3FiL/5wlcIeC/xRGx9EYSI/wDA5EJHJoi1X0fQnI/xRGx9Ebl9EbX0K6htC5HdHdHZHxwHwOiOiJ2rBnaicYJ3oFgjzSW87hkvJndgIB1ZmIjyQ5xBrAlOY5DmOYQ5jlL6y3EJucxyEN0StxEiaJRK3JQ3mStyUSiAnmSiUShiUSiVuQMy5yENyBfzHel3pd1g0ncSStXsFbyLSah2HQFyc5PZFRe6LF51b3Ra6pnR3M0DOfwY30zsz1KV+NP4qXY9alUDVdodP9PYqGWKddNoqdVNyEqLaEIyEQiNh8SEQpIbHEcRxDSbYUTiIkJOE4jgOESEcKI0iGNQEmxxENiBHmO9Oil3XiWCt4n9cY8HPRnp4Pdp9YtVDJzQTULnRapzJqcxxGUTai6kdj0KV+VN9NY+j1qb8ZkKMrOuxUWMsUq+nT2LxWFRaKh4oBcjxSHTrTr4VwsWKhX82glEmWDvS7rxLCzxP64uyFczTHu0vm6LFQy+m/dT6xa6pTJ0rkWhaUX96XZnrU/hp/xcU3uhPopvxmfuaOqf2FRc6LVKptIqHVdK0VDxJIhUMQlIgU6060MVDvQ7CoXmuODCiQHgdiW5Lcbb0BCATcdz4nxJ2Ib2jRsTsofDZhMT3HcdxwMiRP8AcYSZ7HIc5wjjEZDqESt6Lu9MKf1ix1TykvNHuP8AKbha6p/BjJJ7lPpFrqnX28WSCGN6pvpWMspufdN4VD8gVDFirYJ26jWlUOwqNaGLFi8zuvEfiMVvGRjAluyCEcRxIVLIRCyJdMNxnGSO2BzP7P8ABnYaqzuye45pzSQ4DYZjmYkx/wCJnHOZH/gRsfRGwNbX0JLMh7GsB7Yws1YylidonYidiJ2oRpm5O1YJinYPLLqf5s/zZ/sznDudWQ0EOSc0nvJ7hlnkJ7zmj3BPeKZI0RLcT3Et5LeNnkO47jsOwzmQslmdWQ2ZDZkeRPOkAZSiO5zHMQ3Gm5uCVuQ3JW5K3JzEkkkmgVDsLHPAjxB1CeMmuOQ2icJMgXmd1S6XUVKyla0qnf2psZYqbu/iHrFjqn3fEbnRa6xkkT+2lsgVHrFlNvy6V4oXBeBGDujIhELYgNKBJPQ4kcWC4RJSQxqI0yxKHJ88CHdndjV6syq7OxLcluS3Ie4lyS3OTAS3E25LcSEtzkEOx2OwhAhhRwuLCaC8zuqXS9KiosLKdXi6KWzDZCScb+9P66fWFZU+7S33MknF83RY6wggg90gjBj/AHFTFTbT+On9VQree2CtSrul3QqGKh2qKhiodKod6H53el3p0eI7FlOrxL+9N7otdUSP7E0BsJJJJH+oTyRNF/en9dPui14q9N03/gVNin26Xb1Tb8ioZbS6dgrUqnWlioYqGKhiod6GKjWh3/gJbjybdxZLl98PwPgTtHmJxlZhmxPcT3HRkNmIgycLmOY5iU8zmOIciJW5K+hNF/am90etTdiQQfup9IVl4h/TT6rLF1Td3U+yp/RCoZYp92l2dU6exUOxY8GcLBfwIqSodhUMVGtDsLwa+d3NBpITFRWLQ70uhtIaMVsIG0GJkQiCEQhFmQjgOJHGjYECJEiWuzuzsJbiW4ZDCaFDYN0RmEgjYM/NqdljC3hiSjJ2ElITSLQTgJCSEmJbhs8mp0Z0Z1Z1ZqTU7juIbfQarR/RPluxkMmR2f0dn0f7I7PozcrHd9Hd9HL6OcbFeYUByHLhm1fVHJguU4xKZi0j0OJguGcwuexxjnORHCGmrQ5jmOQ5BWWeok3ORENyG6GUMbISTjrxnC0VDsW06qdAqaosFSVGtJULGRX87uNCFTD4IlCgUXsWmFxM4IiYkckhOVI1RLMrEEhzyC5CEHEjUWWU3Ohk+oqP0FRc6PWwzXHgD9lK9IWD2bkSw/Sl0noCp/fhGEFjBCxRQuhBCIRCEUuhcnRCIRC2IRHPshEIhbENj+hBDYhELYRZEI4CGxxCCsIghsQwoiSXgg7EcsS2YuTJbskJBpxcR7kB2I3EbiHLzO52R2WFzidz4jmgyWPjh6IniPB+B8cK5Ge5G4jcNM7HZnZ4EsECF/AO5G4spGmwmJyKcsI6RJJQhT+RDIEhUSEpB4YvHhIEoMspueCaa0G8GHz3GaUaOxYtepMG0HZBkYgU7kUbRq2ANwPDAWPHE74rsUkjvdCsO5EjIMWEzsJnAs8W/qdPpip1dvxX56fWLXVOrt06uqb+1N4spV1NypsdRXpd6XUVD8LoYsWLzsjmRRlcpwIkaLML5wsyfM4d5ghBIUYMgHapc8GOayCFNYsySyVIae8Vbc3rkoFhXAsocrIifsCHoX9xZZEFzgFY6Mm5JKSMigVygnzZlArDw7MucIBnG9ySjYn6n45a+3TqqJYLD1iym35dP9Hil4VqbnS70uwqVS70uliod6GKjWhixdheeWCdhOwl7DnYlsdSOFsMcKAgSENyVuShtYJRONzp/rTo7oz5gyJLWOTSw93BucwZTh4Jaa2L67C4mw9csRnAlCwt7GeHqMZJClLF+5Tfqt+XTP1Km6m9IXiP6qbFNovEeCcbBUqnXxOnWhio1odDC87vS6XhCIRCEIRwHAcRASESJAiJZndndkt2Q9yWrAQUF3RkLs7LC+AtyDcXkh9JYKFH7Ee+T3ju0d1EA0BnRkNn9HZ9YSGhbCWDmwXEG1RImXnqLro4hyI5Bv7BK3ORENyUOpiaJW5K3JW5KMnyfpKJRJJ+DxA/0C8QnTOym0VNtL/NNgqHU1p1pdxUa0MVCvQ3njKJTf8AAu/iBllKu8XR3S7MtU3dvEL4iCEQQhVn2IWxC2OA4hrJ0Q2OA4jiELIiGxxC2DhHEImhxHAcRwG0OE4TgIiJTc4zjxlBhYndx3EY7vs7vs7js+xLLI7s7s7s7sYdmdjuzuxOSOWS3EtxLch7iPcgIKN53wPgfE+JIbAnYTsOAbexIl7EtiXsTwJ52J4OhMdCcycHXDKbEtiexPBE9hL2OAkOcHc7nYSZD3Ox2LhIQiBGf8B38R02ioZZTcpdLT2Ki4elTfTfrp9AVqf0Uv8AFP6IXiC/On9VN8VNim6k/wA06aXYsp1qKh2F/EVDoYvAv4F3iOoqHUV1Ltp0d0uzLVN/an9NWVNj7Uum/RC8QX5U/sp/dCodi1Td2pf5p090uzLKdablTYKlU6060rwMVbF/CXNwEi8iGsFKcxyHINokmgqH/AFi7puFim7tT+qpKmx9ul01i7QqfSpVN+mn9UKh2Za6pu7eLeqXYVKvTcqXYVKp18So1oYqFixfwGWmqaAgREIgcRxDQgRI4WUOxPdgGdwe4wu2F3FM4PifAniNzJ24ro8QJtx3HYQ2Y1hiITOHz4bmEXNTiHEOZHIhF3c5DkRyIlbjZyUlcTTs6Lfl+KsXYqNGelT7NPpOmxdoVqLnR6VN3anVTcqbgqVS6hUqlUqleB0NkrcgQG/4LGwj25eDpdLqyQtKvS7KbKXYVsIRDYhbCSl5HAcSOJHCjJniRwjjHGJzIbII5PEIiI+SHJ3f2f4M7CH0Oz+zsOz7OwfJnd4Se4mTfcLmJ7zmnNOSZkp5TOSRv4OCbdDFKAglhcSKNv6I2/oja+jNZiQWZ0HQRsHcS3HdYXc7kah2O53R3RmHdHxPgTxGwhO0nYTsJexIlsT2Oh0Jc2OrOrOp1Y8CBEiQEyJEiQIESJEhgjhjsPgdCYlsS9sHxwdjPc7Et8ECBCw1/gvCTmGiIMkQgx8XQqcqRSZ4NKShwGSz2IDabCdOCRPMknC4jgCJQi4REQlcG4HNwHKeR9AVza0XUGhSJI5FLIrBkLNYTDM/YNAnuIzhb8068Tm2V1h+2E4tkx8lK53ODRMxMeFp6FLmWHHQKhENFhUtjKmBoiQLQl5DSkxA6YaJSXCIk4PcFSqdaWNSJGRAxEYQsEQiEQZCIIwdKonPwa/wwSFAmRC0FhJtKpDHc4LaSwhCmhEBLUiSwaIozzIIFi8lIzUlYVK1YSF6LrbHwoSA+YzfhN7mI7Esgk0DepRd2oyBkHgIUECwiFrSZ5i6BKTKN1zMwidW5geZibYtp1dYOTK4s1guV2IwxnJ6DNrJGHS88hnDGSbhIWSWFD3RkkszDEkQCwGHPx0CxlYRU2SmUU245WwjvEokkiUNwiG8kUzO4Gm8hIUDsxpIVDtUlIQ1h6BGkaIjghM7BioYqGKh3oYqNfAv4VIQJHQOBKsjBSQxOyIGJlckSWRaEshIIEs3i8yZjU1XhJlODsRkZzQssIlMEjsxUzhEKZou7Ul3GwT5FS2CcJm2ENvuEmXQlgM5LcYxthq6WE5Y41twKEWI0gygn6Ck2xCjMk13xgRD9hcgSqAovM/qKDFj+tETJIQQqm3Fd4lCFqKGuDzQhTmRjAFypdhURIW+yHyosJVBEYecsK1FioYqGKjWhioVbF/CQIECI0IkTudh8iHuchG4jcNBYmdqJ2ibODECQTc2JbHQ6nQbzWR1OrIc4SIwuY5CVuNkx1BKJxv7UQhvJQx1sNIVi0hwsztBxI9hD5w/JEk4XQePnjExrMaUixDSdxZLHV3T/Wm/tQi4shKKHYtVK1pdDMkelLsKiJRGpEvQgJhCzlixUMVDF4GKqSAkwdBti/jHUVDFQ6TFrS7qiBkEDiI7DSLCiwIEDuE59ndnZ/Z/gxQ1Y0gdx3YKe4dAT7jkYgwCxCaAzURuR2RE72HdHZHZEbQklnqRvR2Q47oSXVGYMi58T4HxJ4F21ydiJ2InYJ2idonaTjJPITtUJJm1YnaTtxWkE9mCkJwAm9iXscBIS9jOSXsTwTwTwM6HQ6s6seSwuGCJEiJCBAgQJzJW5IhuQ3G0SiUSSNkkkolDZKIEMEnQlsTsHgZme+EEYIEsX/DL+GDpMupd1TYKiwsp/alv6qpU2KdXiF8VqXy+addN1J6VhZTqp1pdLFWhEIhYQQiEQIIRAhgaIIRBGMEeJ0P+OakrUlSVDsWU3Ol3VNlNjLFT+1PpOqVDLFK8cEqbPl0/0UuktFRcLPOO/wDANaWKhi8DF5HRr/CY0Q1OQlYFaksJxKh1LqbGM41RYWeIWOqf2VLLdK/LxC4Kl/Z0r8aXqqouFniavEOl2F4nel+Fi8GtGuLYv4jR4EcPYmgzsZG8jfjTsOAnYQ6YCQkHxFDQjsRxhKnhc2NPMmIOfHZ5ZMW4iVuTg+RYqWTdFI7eqf0VVmlvX4fI2cVE1DemmyKhrd03yzxNVLpOl2qLxO9OtDFQsZRKnGOhL2J2YEv40RwYiwfP44IweMEkQiEQtiEQIECBwHAcZwnHjEN2R3Z3ZLec05JzxMvC8yeZ/wAUNyhtHFo7I+B8D4iShCQnaJBOxEK21GZO1HGOIcQcmnCyOAcfA8IkFCE00WFWqf8AJ4d4mCz3EtxLcJtM1HYdh3HcNoMJtx2Hcdg7cZak9x2HYdhImoEyVx3HcdGdxDoyOzI8kdmR2ZceZDk7CHJDkdw7MKJEsixA5RuQl6nKcxzHMMtyG5AlbkrchJKJW5JI3mQ3OQ5DmEhEjgbexwHCSYbUhkt8ESBCI868kbRwYrhmfwwuFcVximiGmDgQJQTmySIwmRA0qcJX8F3DEjs6oZnUf8PfYNFgkTnGN9fggggyFJSLmIWEEIjCCCCCBAhENjgOI4jgOI4qgAgQIkTiwokCEQiMI/lLxsSaGmN4gnwPCFtSWUQOMRimUSDlg9wPSUGRLIwI2kAknhKUVPI0RcHJEkQGXh2c7lkhZSx5Jsk5ZJlgiRrrYZbLAEpCl5IYySWSthqX4YEl7ilL4ImDZCYGiE5UjcEzwOyWDVtFSk+IIk5BRYX3jPqFZeLMzI5EIJ+DlDB6Ahkksn1xlf8AILxsVAXOO3mwTwq2BXiFB4JZnBTCOyrvCwsQUhQPkZGQn5xZGZMjKSEzScEsWYZ4CVfCSMwRtoRvFI6Y2EqZm4lZveuI2NKTLhmDDsghCwiJGxZYRFhEzuNmQ2oiZYx0pFCQk4FwQi8beXiCFhFsiPBnEJJ5JCsK2smT1k9P/NwQvI0f8iMYQlVGMRhmnjrYLmPHkcxKFguZc+BJiphYOCpImTW/8Nxkn4URktGFjEQQliCMzEkv+kNf5bU+aMcoGf8AHy/6+X/HT/8Ak5DRjY83/XiElE5D/8QAKhAAAgEDAwMEAwEBAQEAAAAAAAERECExIFFhQXGRgaGx8DDh8dHBQFD/2gAIAQEAAT8Q0McOmIg9BKMRgxrLRmMFZMTFowLvW6QQQQ9XT7lVqjw3gtQTkaEiDwl+CKwPD5ojAgiiF7OH8kEIhbEI8xIIbECGwo2OoVNvAe0hv6DiHGH0OF+RtyhwBk4BZyzOBdIQdDZpWJ8kB2T4HA9hj/rPvZ/SIFcuolBTrMSSQ3OL6nhtb1H06a39fg+hHeyH0bR/4oi/wEurwGTaiMCQV1ij0Uk9qLlKmRvYjhE9CHAFQR0MaKtpn9dXCalVLmiZ1jlkTpKWG4S3kwbtr0NSSkWvISPo6ECLZxSj6iDlHkofUQWRbpzENxU79BkkuQ3IbkrcbPdCWhaVO/Q3YWFoaDgqMYnk/AxjZgY0imBiJE6WjDQyCdkTXKYxUbMD5nVMmw4WSKKeRCwToLH2FnQt3f8A5WlZ7H4Zhps0DqNb5/KHVF3eHtQ6pkz2AhiZJZ2TEdYJPs/hRuiFl/ZCYqpDQnqN/Ohjc8T/ADRVs7i+TDQy/TnBY04Pu6QQQQRKsHthVCIRC2IWw0IUyGxxHAcQqUWGlg4RbdBdrEDFaabs7gmXdncpFTqVSPooRseBE7OgqNMEHSsMBmMG9SUQWizyJRo6k/U5Sd+7Mmk6W6OjAdG6ViaRYVXBiLGjKWJoeDP3VYxwtiE4o/fDJoncfxGHshidGxk+FZ8LSq+/o9LQmdEJo2SOS/tKJoxDw/Z/gs7EbJJJGlP3bdGMTHgUtV0jL9WGyVRWZ9/hiVqKiM/irGyW27PnTgW5LGmbv0nvmLGhuxj0MvXtoRb2jBaELSZBUTpnMdDxq++0MzdEQZhLKlhkZoQIDgdhdCdE1tRgMY6MNGAnZUmk20DW0WtQYq1j5HVumXdq0KtHVn6oeewhiFRI50a8C0fS4E9GTsWyh0Yz5HyMVJLlb/EN4FWJH127qxZHj015Ysab+NvhCdENHvb9mJ2FSR4TLVoTRsTLk7fO6vUkKcS8mTHkSWlLu75q6JPFItGdsmew0t36WcWEJ6G82rtoc4rQ8Mx05O+hjytDQ4lqtUqwqtBJaRS/4RCVLNRPuRYyLRNF+CQlzDCsxAU0s7f+QzOdjItKzOxkdmcD8E7wmJSngOPwGjveBsThik6e43mcheiR75wlyIVdnHOALoqJOnctYk2PMLZE2GiLQmshW2w6kp9UQJ3UZ3NgtEJ+uGYEkkmDOtEKjLCOaLS+VRDENDPtBe7hpy+D5EOvvvkLFYpOswjQx7f3aiq3gZb2peROizoDAmPkzI5hDw13UWhjyr76Wt8MT0NDuR7BaJPhQtDwvdC2GqszOdLwtCdfnMVoyGOnq0ZDAVW95i0O+hY3YwfhdMBbDaQ1OIiUpiSJ3wTJmPZuU1mQiEJAsVgkCVkQhIhCXGKkIhMRAlrrqyA9o4CAgo7HAOEcQwhdRd2VwmxAUolppqGnszjiR0Cz0uolLAuh0oHCLRSsQIJFk1A2ZGtDmB272chKur8kBl338ELfOSdI/tH9MkV0BriZSEvqY+gyEt5+EcnwjcD/AEWLHheBXJd6EfoDCGyWwhFIghZRNLTToeoFIy4kZKrDG95iHDgmZQHXTsh15FHj5o9pzniGdLyYE+pSR/SiP6xEI5T32IrPjHdz9mYnLF3Ysz7oXCWTKFpcOyLFGEk6i3RPPDaj0RyDSvCISky5bFsBpyatP2FYUDhDX0nDHBKZERKOCKLA/pHCG4kyFuHMjmRzDLL0ZAXJQ0olbiHNuiUJkiZFpRjobF+ROio8ouNOK7mK0PcYaHhmOhorEiZgnJio9BDdDBaFWcLGk8hacKCH3GNNjmZSL3wMalsPIoH5QuBDq0louRpwYi0YDUUF1TYVMx7IaIo8CQqOs/UFo+SW9l2R23Iap70exVmjLtIhVQ8K3KohmDPbhVY1Kv6uJaPdy1Oyqqey+I6Wpi+9lYrBr7b0ggQQijqiRBA0j3si7IhEIgQEktDncU1KgVhb3Yr2ucSERcv4FtIewjhRwBBiSwRtmB7U4hZxERHiwcZwj2zhFXhEFWos3yFrLGe6d4bR2It3JH95D94pZMhWQ2Lmj3BEsxjDKhirybmC6Ru28RO9UGsmBlwkcIe38m6X3CyyOVSpHK1ruiFYI7Oi09RxgTK5xjeQX74xOJishzIm6olDXCRRR8QtEa8KbJx3LZCNQhKJyQFlJVJIwFoaGY3YabEhR2ZImw4QsLsZz2Gh40EDolofyMsx4iaaLY7Dp7ke2VVIz8PjQxfv2dFVrM9vp6l9Xo6e7QxKJG8NGCipJ7n4VVHj6txPRJl+92mJ06PeC1LsTVJGNNomu9YsjfJYgStT2gWh47oSF7UYqTPClpsGFL1Xz1mpw0NcYoWjLCwKHfKIk1zYMRUsLeIoELYhsQthUCdh7I4w9n4IC3wLYHEXpi4wksjuxq/9Bf3Ed9sX48aDGeZvcqIK1XsD8Ykc3FRgjdQXIVWhzZIdsJNKVIl94WaXbEZDDowHn1vQxPKtK+k2NnvqyQZtFyAQ1MoSPchJ7aqosdt8aV8j40vDLm8Kqk3r6vRi0+AQtuSZJFk2cMSshqjpH0Hw0/W76DGL9G9EMkefoXRNE6O7WwwmSNDI50laGxjku4op6hS1VfI0tHdGDTk9tOPsMNHQXL51ZaMxjp9wM8vgho5mbLkl3TELRijGj1K+w0n0dOxCYyK2spOjGG0N6LwYaYvxtCFQiA94juIjJARB1FtDkQsTUZE1uStyG466hermz6jlNKe5wplEoa+49vakkjWG970dD4tIrGKcsvYX8ol1RCpt2GJpfZU9gx57bS08afGhjJL3ePD0IzDz2Wlty+81Uvowyw6D3kWEN1Y08C/CqdLkh004O/yohkD978j0Mk9kWEMuKrL7i0tdyEKW2hYL6vpeGmKqnRer1FouS76TMdL2rgWjOY1QzI+RcnU3uIrAhDopaOmlE5asQtcKC0ZjGrD2knIsDspFLFWNl7h1m86VyCWUdG8dkLRIyB6GGkrD2zjp7YSRike1EroLWwto4BuEqEEQiA+YSbvyJldkROWdwcin+4bby8hssW5OeSdQkZZ+hKE9I+j7EbS+BzKzwNOlWdiOlrwQDHhDMnKhBGsJrD6iEfT5F1k80zo7qu7wXf8AdHzhItEh16ndfhkQP+ch6nZCSJ9oaS+IU5dBost4Hs+B3PDHvPwemt9ZL8BgamaY+7NdgflJnYhroGj/AGIc+Q/qH9YWbG6x4RxvJLYQ3COhKELkwEkZRImSiw0u3n5GySaO/b/1SaqzJdfkFRKqRd9HRUkbl+F+dObujBaZO70vHcVoeGRaNabvQLTrZaHhiDBgFtIJCimTBFGZoSwtIStzSwbqCR3TIqRJfgWYx0JS4j8EVwEhaWA1oJWqzAw0LLCwtJI9T0MaUdtLgwqjO4Ze17NPtPwqQq2L3b5CrA0oY6a3QhEIhKkJdpCCI3dCToJ+o7ELAe28DdnxH84/kDNl0rwj+BTEpykHBJEs0QkrQOMi6e7O55Yl4nyK9Ebuvkxy/wBCP7xR/wBxo+kLySt8o1is6xMs/wDQW0C3w7zmJfX4RzRBYc2H8IUf+EfSkRpW8uBZK8bmyvgjbnsR+gd4mg2lLQlg8REMyr87AisyM2TsHCeAT1oKyaUpyKDA4nk4nmnc6Q6KlaluRr/RzfJD1D35dGW8lvFTKZLlcgWQ1XRnAzgZAYhlMW8NGXQPajLORQ5GTjCfhDIBRZJW5DcgMNXHo2NjWCdiaTYe/cJ0cGBhVs9z+GRqmAllR0wMNGaFVji0PDGC0PB8zrNMAjSyoxDeFntGny1+ENCpB7r8hKNGTse0k6Fk4/I9MWmP39FpX7dnpdkxY7fTd9i7GtGHvQijRgaX8abu2Ho+OYaWlN8vS1nuLR7JmIjQqUFtiER8hCEQiFsIkKjBCIHEjiQppMsIe2OOcRDKEW1YbOhx0aQhId7J7ye4Z1sTbiUEvqHu6x9scTwLC7kSRDjBG8Nw6fjtjpwWknVDeXQx8C0ZjESTRjXd3p+OTV05aLe6G8DS/wB+1HW3u58MWj2g3jaU47D5dOtV1Sc76vRIiie89hVRY3Y9m1fb0dElVmDPYhioi7u/DVWFUMwd3VU94Fo9gWoMdUnuaVFLRmMFo6GSqqrQ2IsaGtHAw0dIsCQzD8A9LtIw0WwLGj3AmSIaEx3EOrXaZ4Hlu7FRGD4eh01Uil/dD+Fpuds/whusj+Z8PS/iY/jidWL0ofLE9DeZfOghjy4MhaG874FjR7kMvT6WlGy0rn2yLaPbMSEcNCMjf/jT7h/AltDw+2jRT2mloJNK7uKPQ1VGQSyFVszelgp0PXTpkMdGDRmE0pJJq6LInjIe+Ess7VmVHnRITXhfBKlIQIKN6I3ITqaElWUTsE8BPahnwElKGHG8n3M6v3iXX5IvccukMpS6PoOUimDEl+nOPxYv5GQjNmQnKRZG2o1G8sXElkP6BNhfIv3RwvIteV5+xDc5CUSPd2+ASEokbH8BH0YqNUTt/SXSROj+X5IYbJE6PL0yBEZAtDQ7kQt4VCRtibMzj4VbW9MX7s6E3REfzhvG0WBgtHJTWqoRtuEssRVmYaHs8BY0PD+GXdvS3hw0tdqs+6iGqT9EQ9FjodD0NqZhobplVzCdWGKqx4aHhzB+CdDQxVZa1VUeVSROzaMAruMoTFowMNGBgKrPhmPxBMkKdNkQiEIFuc0uosMUFh8JJjLsOOSw6PoQhMSwmKbGuiGzPiIsLTv4AvCgbshdAPMRiRA2st/BMhKsN+Ro/wDQguryWKXhiMyWdTiZI/3G/o+tFlcZhD3It4xF+lDbqVW6CcLnvBcxfcR+kJfpjXR4iWyyZt1Mcr7C3/IT+rLnQ7sTBGmy8ECwbH/YX7Msf9BiZE+kyBtLKbXuNz3H3M5vkkoIklK0KxCv9oTP9EKFihtzKpj8DphvJvBLYl1bt6wXC1B5axMT1QdkLj+hAH/AQ83Fi5MdvHsfyR9LwCcYaQsITiQlUOzESvPggHKJmhd5eFInYZm/ULDZUnGOAcITJzaCF+yJS/tCix8jlqZRAyiTqjkRAbW9MNyUSSh5XsJrclOkj2HsTSTB6CGLMVJqIlkjdhpejAw0TLaPkRhRUn8D3Qia5oWh5VZLnu90iEFzfBEh0S05h7KKjwzL3dHRnt0X3nJxSMByUU+wxstNJntSjYiQkPEtF7CdvkOl3x7VolnoLE1TuN5fgKjpk7EfQC0K/B8jIohn3ORaWtKtFHt8VKjw/wC0DeNWDLg3Bu2RItpEMfhGzrjI9qX8TY53S3uxi2y5tklmdKgMdxzeEqQNZl2N2x99N1xy9wkMNSRLY1bcmc6JlkBF9Dobb9ENKYnGSafKd0TTJmN8oSENhYj2EQIHAjjFtCnnEOAcQ4gilZkUWELaOM4xrWBxTAhcQ6VIEgS7sUOrO8WMss5eT7mJk2/fpyze60hl1I3qAljao6kEbkRuQlwH2lx4JToidqoGgwydFoDOKEsI3KOYXLHJGjqCAaJWCf4JJJGZIWjFpaykzQlmX11qV2aLBlG+xfAtGYxaHhkMN9DLOwhdJyapSovC0N4nvBUS0YVcMbIrjKYbEPNskwhIZC27zuuhanS4ToQ2urlMp8oXxIVJpk7s6tjZ0Hr8KsQ0dpj6QtZhdW7tPUn0airHn0ULu9kYe7E22TIITy290zoYPJhg73YxpsNTPszLf+gh9SZtya9ptRq9fs4nkJVrJeTsMYvdYnD60VWLWhPJMbhCH9LfRGW2JyOERMNnMl0b0EzdBUkqySfBAqkkHdl1GN2uO7llIxavalsgstWyssJMm5t2ZjSS+8VkY0khEyzPQ7iVv1dCN1sN84Qa6N3gx0oI45kGNJzB4pLuN3kg2p5ehFA6Ze7HaRJtmJiFFRWUx3F1J9Eal2gyFOEsi7EnYR/0HmbjNvZiqlCLHIuEPpMVJgRov71GKmPcYVsoZhMdvyyTTIZCm8NrD5VEup7jZ3Eg5YTTYuSbOsYynKxsQTcYFga7y1SMU24QgUUlPAclsZFV9sIc+yTAkphMVUy/orst9m4T2EaaW4ENWp5nAeEi3JkhD1yHiLK4ZkEEtkxFyICTTw0NGSFjRk/yKaN1zQsaMWnBXASaZpAyXq1GCIrgfM9KusZBjUrqPA6ULwAmJBFCK8Xkj9jlkyKSYSotvPnrIFJYgmcCgu6NAdekiwyRsae4qxj+T4UQxIbjJu6QqUND3TbIIEhVx3D0QT0aCSTvjSbq9WlNOybGI/hEKtkW0Pek6PLNKjz0lVo7oWEhF79ukFslvCRhbjcd+AYqHDcpPvA67BTKXNoGnjJIblZaEkkkiJqcDmeQvZKUM7urFMJ3z2RYFG5Jmu8DvE0OyidzUKWkjMkJLu+1M7ISI3leqFHvgoGvW6jEFGTEXINk0uBQS556nqKxi953owAlOXsYw1pwsM0vK6G4JQhJQq/OjFaYetpxd2KkRkyKRs5yHqpdRrzI3VhFoQkhG347sc3ymV0I/LhvZdlRavwkjx6+0KMt5Ty2IQFvOgkEhcwEBuphItYQvb0PkjOqQmyzErIiFRe1ozTujdxKmObUFsEMBeg66OxeYOBWAlqSuJuemYG4eXbEJDlyhoca5xmG4WJdsd0xK1LkFV4MNDuFpVJ04OoT60Htn6nC80TY1Sl1HOUN1liC0kyVBmv6xfZphsJcWYoMPwc78DymJvSNsMVSWcOjLajhdhDalZZxvJK3RK3JW469AJCB6lcQiSSSJJFvoIpyS60gjKHlkeViBbXMW9wqMZc8hhVZf3vgToSJL6N01DGGXoJNpXNNCewcUqsg17xsELNNTYeSRDGWS9cu4kph2aopbScuEmrCVd5UaT4jNXrNyf8AkxWmLjn6MdRrZyI5hzRE0XyPlVVHjtCVqSNo7KKTO5bnu0IRkQI+G0RNJc27tjViXIzNOcttBWfcc2+pkOr/AI4hBnbTaYvLp5Y2YMbx0SphJS5dFanlYRwzKcSblCkZNF19ptoZJeURjpadIb3hYoiCcNrgWhLSShuGMmNOVBijO8mmvQgJEuWRNEuktjEG1ZMldcQSqJ31GxEGm0xoyIlDnU4S5FFK7GJe2YbESSBswJH1lxEFqXuIomJpHb5bEJCVGwqOiW0OdMs2kSJwJihgalDaSlsSYMy2qB6Z1Z5QqQhpQOx2Z3FERi7j5q9jE7UE7f0IyhJBii5stELYUmFQsPaHGOOOHCNgG3PiHFZUIsU/lqBN7Hf8j3U7Mf02dzyRXXfcJ7EkAn1BuwoTBS2ba3GrooUMf85w/BftEHsPBNtTwI3UDfQP9QbAUtvtgfQd6iAWMZCjUoHBKyHeRCXFMPIlh36D+ghri/6omN8krpWGZfzDh/mQ/QTwppp3hkYw/A1dPA+hMtY8GJ24rmy+TmZuhOwIukblasRa7NEzgnHJseQsBmBsNEoaZ/aJujyPeRDdCrmmRxvIn4Q5EcQaurL5ORErccUiaHduHkRGRITRHqh16IklEkkWbbk5QvbsJxpDayN0i12XoTRjTPcJrQ7V1lJiVBskb3N/eAyTjpqkLZVXyMS3mGUoIRIkqRxZRAk7u5JVwQxUKMSa5DEnQTwl0zFp6q6FVEQ6OGxyRKryFRSiyk5ggaDfXthIiWBLs5ix1VOUnvqJjdLk6HoCnRiFoRoOhki4ICrCg8KRjfTSZDHUCIknkTgFRocw1kbsPKfcdOnp7ymtmI4e94H1u23gwz9SXy7D67J15oellOZiwqISoIyKxyP2BWmyikmnufgISJ8jrJ1RKkTTSaPbs9opFGex1IJKsDMyEhqLzbbuyFsJLaiAmO3+jiRxo40cQYSkpsRH+lfWjP8ATHEEu8DLJMJQRnFOMR2JgazTWGQOyG2tAioLoonENgX97FUWGGJehdWJWG8se+8s4fIJWPcJsOjGWH2qSc9akei/Ud8kuLLPVithI9T+yQ/70p7k6RzneEKTPwhL/RC68/QiGwlWXPMEweIj/wAiP0hJ5Qi4C5CQ2EJ2mZsJ9aEywJXoOD5GlcGy+a+8wgFIWQuoo5BcBzaCYlkJQi6PwcHgInEiUumS9PA7x3vBCRNCSyY4LQmbiSQvdOYYsYkpSfQie0iCsNN6P8Tploxa40X0kH2dxEE0O9Zwuq3OWr20dCxPvoaSQ0mMcrZdCVuYdpMaj7iwF+hZshGKAl0robS6oVAmW5w2IWpZ/QZegTVDT3+n3PwFRXUpieNtJx1EjJwY4pepGCZilSCkGgJSl7DGZRlI9iUNR9D5EUgkHZtitGV3YrE3HRqDkv1nT7nyDZtqBAj3RK4xErxfYaVj4HWRCFZRbBCfhTpPaLNzHVCi/wCRAtD0GtkN597L6DlQsjmbNswTYUT+hGKTzcw9iSaNohSvINKXeJESWFX3TFowHlHSaIZcUyh8fMhGLnB1ZogiSZHVZBLuhbI4hCHdCCmHkav9KQmEyIK2BnHmFvIlU6CFIVMTGliEIglsEbBIQi9LH0MIvjLOAaQqnBAgRsQqtYsENkNBEmsYfidcP4wE6s6REVyD2aHhmD7vSpTqnhmyJBZOGP2RNycKPvA3vPwSU3lsXFE7nvAvgRdExTJHgkkqjPcvgVcaMjgNMx1y7oX2wbuof7Eb7i2VqMjYo9gzEtrDNjs9RD/44QomacE7jUnAJvRSMJe+BCkkJF7uC5LG2NtEmf09K/T6iwJ0OJMjitfRsabI2LwJJdCR3+xdjQ0JTQYXXSL8tSPuU2GnlGyGJ6QfZFExqyGMk3uhXEsadRsXm6XIQQkaPZsS0ewYlulu7sJkSZvDZMMvUXSajmLsS184juUGsMD/AKCtM+gfBDcPa59aHbBdFBpweR3zN+ovNxuOSS+TrlGoLfZzMXVpZsBz2UbML4HjGHM+wW99RwA/1pb4BPc4sIEMeNPNCxRseHMav8EUgQSbMaMyJ3UTcMmK5ynCOAcIiLlrKEO4GFJSvhkofHcTVGhkmY9gKrHyb6qi0DqkwlgumbqYtCz3Z7VWCGI/UCTL0ZL138CmiRAs94JHYaJo3MLXeBV2bPI/YjoSaRaPZUglRWWye7Zhohf60sMm1fk/IxCdIvCxUwG3KadnBCmkSAIBComvYZ0YNKEy7M6Y3diJJaGln9J039rT7MWE0yC0XQ5FiiZJc3YSEVWyROlJLhJ+qLd0SNJMSUC5BTY8joTYusRLwCXhPAktjoFIbIhbUcFKr3DW0NymjFIS35koIWxC2IWwqVY4jgRxDiEFYc1g6chpaQkYbUHcFueQ0BJh5iBO4bGAS3mLoJPU8EG/0GJhlfY+9H8o/hCXX4mX7SIbCXWzyWj+iyD/AHHLHIkK6+SLr8j6LvVCdEoHFZmUkWbWSOSfQQv8BP8A9xw+AibHDd4OR+GchYPDLskN/BbwF+4E3HmOCYyyEVQsiHvnqcLyf3jYaYiJtfwchNR3S0wxEiShIUD+0JrfTCdVNEhKncPhsTE6IRoej32TozITJoTehn9q8UJkoyJ5fgIKiJ98peWJ6cPd6cBVHRyxJpIyHracwsVkzarVsMlYiqV6CkuWLA6tdC0ZIWhXf8AY6VoCdK0tVy0YhE1fzCFHgenfq6WR3FgmuYwaGJnvp6+1MQCHYHokz1hp5TIVhOR1Reiz2S0QhmoIbECNiFVtdX8ELY4xwfBwDFlkYYroN2fAfwKZDhEQORQsn2E6ci4GXcLbMMJyxlRAtRfyxvUYdwlKE/MON3uW7LI6HVof74RgDmJRI5hauTe5JJJeajN6hJEut3gjI3KA+gk5vhDct28Cy5+gS6vYYO22Fs/AtgF1icLwKaUXabD2o/lC8nntA2Hg6INwKblMupihskhJ61RFSVlKwizh4PtQlvCP1WYuTYRBPQjMf9SSrq+YbaUJOB9B3qPbeTcTyfWxl5KC/wBi3nkX7JH10SNB80s5+Eaq3sEzj2CP6CSwxKV14HD4Hf8ABJv4J+JIhHkXYQa8hOCJZBlBbEuSU90zMvVm2C2YtpTOMOJchZOQ4hyIWluLaHIcyORFw5ORHMJ3URGRI6nMjjHIKZYcQ4RL1G8AtD0rRiEKuLuIdffiFsJIlhLUwXdHTSYqJ0eB89x1QncuKPSE2ymLIRWyPYeXTY4GJoho749siKsZN9z40+7fxSYE6e7CQvZNDH5E0nwQbCcYTaGdaOyWeZEqfe4YtHsD2sehl6AQqvHcSwNUkhJ7ITxqKjcDz3Ku1NW2ctz2FgVce0YaLExPBWRi9pDkijMfdGKo6My7nWKImSIIpYhMRQiFsQjgGk6Cps4jiD6Bxo2hwjgHDLOJDWC2DgpuEdtAtiM26GCZg4TiEkWFtnAcA9kluUOJTJfQSS1vUxbBUgaEv3UdEe+Fo6e4saMgtjE6s6+5NEMTvqclSh8tdVwzMpEqv5B7JaGM1vjwKjYg0+uIY0KSPqj2C0JDrbJQxn1mVo+pwxaMnZiQrhSKQL9O2mN/6hmB198PZxaLuIQQPbGmQs4pLqyRHsqIVMOwYIdWjtM9uiatjezWaYhhVjN2l7OxhpXtVaFtrLEj/wBMZE0tD04wxY0Mp6aq3YTQ1hhXAjoyfmZJyFuISbk0RgSToyJGMfHcWNFwwaHgunvRDJE3IyNF+EoNfJeBHJtRNGWvkP4lpfW4qxISOd/DT7wezaXW00l2uB0wpbR9fh6fbM9ro3RiQ3d/CirNwYTz5E0diWN5w5TbBPQsczuuBbPgMpRcmKqLzwHX3ot7A9HvCSa/KYVQ1jFafhE7Vkwdx7UkkxJRR86WBOYJCFnU9CJrT0LIVcNXVFSerHzRP8LqiaJnCOI75Dv5FyhLGWd45I92NNS4uk59KFsfBF0eCGpCS9HgfI95QsTAgLDfLRiXqbnuJOoWcpXOWRHP9Z9qEjl0DueCJX+Ce7T8ifqWo5C2hxRdPzEyt5EO0LWGJztYQtgSt0WGIl9+FVnUa5fVx4o2IkeGvCdsdNq2VVExcmvga+rvo+q3C0Wdlj+NWaO4ufhRDCN/d/DpIy8jQ/n8D+MJ0TGOnaydSmOGXosqVX3B007BokfTm8hgtGDMUTR0buqyTp0msy1VZG5BcKJFFXrJFRl7dUZqZJJGVXGiSR7PTn8XuNKXRBA1TJCTpFMRYIq8Jj2iIoxM96RSELNcECFSGwqbRCME3REnSTL/AJCTFgh90MDyFZxhXwysTLEB83ln9ERA5f6lrku+uyHw/UuE9oP4yHltrsRRKsh2I8SOb4Rte1CV0eBKyEd3BFhRukX6AlyloMzyJynBh81CXU/Fli6fMnTblkmleL3IkJxhZH0IO7P65/SN/wAwgSuynwf0B7DybD5E7MfUYYrlK74H00YXXJp6vA63uIWbmNdtC8Tuy6j/AHCF+yQv26oy2+5ZZrqyzL9g+ij9rQ2JMWunBFOQ331QXb4SVCL+MX8JKhNdEKFf/kfwRpSfsCZhepC5O+RozPhnI/BznINvkScocAT8KcYgYCCwOMcA43k4hF3EQ3IbkKGvQTJJHuMVSSaImKK4GJJo2LLEKjKGZk1dJFgkkgKiVuSFkpYl3JW5HdCOrVeqPwbNCrBkqwMxLlowZhpJej37tOXtVVC8Cr7ZkPSqq69HzxXo6NDOZ7FRVbwPgej37+KsZ70exViMz8CfBLJZlEEG+b9kLZUgaLHvcYKwhoWPsyWIHAxbnCIFRoj5aNSRRocYltECxCIEIVFGw4EPbHGhZrITKU8Ev+Q9iNmUIMKiWscZxDdlUZiE+V7s5H5IcPyZHfyY1SyxL6sj+wc/9hJcMAlLDHMFuRbsiDd1HyRdVhwO83iiT9QtyPtLDt2S3HeO8JbctnK/J3/NJy4OIShwChjqnW6ZDrmhY0ZhY0LYwJZJJkMOhmfdWadXbTn30aLksjfsmXThCKWrzYxEehZ7Wkk9we2VFX6fGlS+hYiZEksZ64nb2FyRkMfX4VSKEnRDIwGBBFGi9SKNUbzfCioz2Ol8iMWhsgTR0axcCrI944kbq/ko3W7TMTDTYUdHihMkke2hMD3QqJjdqEyaNKCqstC1zRPTgYnowUdWv3CxoSUIY2SZhrDroz7hOdCd640ztFYIpAvnHs1ILokX7eutAaHvpMlRId6gd6CJEslkMkWWSyXTH+rCWj7zY9gh6J+qohjQkfVwIUVW1z8tJ405jt9l8UVfftODsMNLH2JJJJPi059FNM330tlDYyRxraMdFGDpmuOngEKjWMBOjHfRYL8yS0Wc0dTNiunYSo4DUFg1vRPWxOwcMlSUiLCeSL9jleTljSzRElQto/8AMX6EYeE/AiEz4FuG4E/BeyEUNVLFsz+of0jjCkXQSbkolEjoCdhuvuxO5s0vPE/wiCFREaFb1J0Xzj2iOpBFLu6+FpdQ6Tw7YvbBsmt9KVGX8HutCxS1MP3uYaXt0N0dJ/X0FVk4Ok/mkk0xjtMKseG7ag5l2QmTU/uGtobGlVmjKdWNga2hoQ9tD3Dirjotjeg0DATJp1YqzJT0T+LEPIQpKLXRMndGs0WM1RUyAklEIDaIbGdaRBoVAWwQ2OIbugw7DiRNlSX/ACpXQdAnrFOPcfP5FLN4Ijt+pPp5aAluZjLmB1ySjgcMJ/CFKeTxCRs3gcH/AAFhpZV9usET6fYsw4cpk9PyGuhwiSZjSlJk+VHVbycfyTZTyJdl7hkUKbJuRdMrbnP8juGyXcSiadruicnJk7iUEz/Whfxl5khD70R/SYusGWXsFoJkusbik1osuh/VHB5jg8pL+4RFYk1YfXXmF/cIXDbyHvvDEwbQyw9xlGm/DIM0VPcK4QVuvDkUNxxDrRgTQWYkw4EheV1OaugkcXDjnqWf2Di0ZyRc2kim0j/ZZmPkupNZZxPJxfJFimI2rIf2jjE+PMNRNYYi40Q3RBvImST1KNiEjKHcwJJo12skTVhgTXBdzEVWuMRMmjGP4LWGEyRuENlySiUNNy9nSSSfxMxEyLuMCc1YiEbC8MiAtjGxTISpcMTkLnrKIWpOorbbSE7wQQdqwepPIwNllzEiUGLQ3okqRoQpg81Zf6I2j3o9oo86LFsZd9GFpaO0LFxKohM9wMV2opISNlRYy7tEhqmNwyFRsRY/kKoIVIIQlDBkIgugi+nqJLYQQtiEfamRIN3RC2kcSMBWQvGsDiOJHEHtIRn3zgRwI4w29BCs+7jXZHAHtI4wrgsk6wh7U4xw/A0tLZDq2I8BbY2PB3aChuzvY23U1tJZLFvMNhcgW6JKXIFmPoRFHpOShkbPgj9IX8Qo5aJ2ji0LtGulELcxPGBR2E+JOxHAh3WEJ9AngSDhDPEwK3KFyHeGo5Qk7hKsxaS2J9xMvsY+bFkKVrA60STokWhmIZG2EhUpu48dozngLcBuwtRLC1gREngNKaZOOEPFNiWlRiIZiCaES1xYWmdMxp6yDpDxY9jWZsS3ZtgxS8xVnwzBUbSUsZNMPIDlkjKJoeZwTbq7CZ3l4E0S7xBZ9GEQGxpTKO0jYJPs06IzXuNHOJ6mcDH8AUtxKYuw+SmnjguBOENKo1hptywZie4ZImsOsS9A6AjjTKPuuIReju/1msUnAFWGS9Qe1D0JozPgUmkjsSwOreAa0kkmjz3dElwLFJJGJIVLipk0sE9GaEydDDRkhUQ8CejKipjotZ09Kpj0rSt0MiEJlYRGVhGlDZMllMlCaOyjGiMpRcWhpUSrVEaeBa0oiahlztSxFR0YGN8RsogCVxV5lcFsPQbA1lk1WfSErUiAhJM3sQ5CWHeGJWdEGQoZhyNKyLhhK6Fih0qK1d1TFL5DLJnG3BKR5yEbKxvwh1bKm/IiQmEMPaIFIniJFYTD2dhvXMIgV8ujXNZdkd9Q2IofQxNmxsY9n7StQVJE6XfbvREU+B8kidc+xQ6veDARoW76X0pJ9gOjGXd1nSk0dhYlJJJPcEkk0ewXTQ91Ek0kzZJJNLgqIke6Fisj3WhIzCkTJGhOtOjchUkx0H0k1knQqNl6wmvRD2wuoGd2akQILnOBkNmKbQkgXXZyHORLMhZOMcY50RMjqHc5iBYdU4dGxeIQq4doVHc5yWCLA8t4rCIWo0/XikuLO4pVUJoY1aDBXIQlA6GkjTViyyjYeO5E8CGajuxSFsNCOTpmNkAxsiyjpfwfIhaGj0PkWBiomff5GxUbF9V1ZIq+X/wJ2GxCYpMVpeVfL+dK9sMbJp8mjejayGySRuwybZOh7OwsVSMMaSNkumSSSRsqrY8oWjNCJoyQqvbUqr4EySTB+cx7BVaMxKsCKVYSWxxI4jiERgUasjgHEOAOPBEuhi9olyQLL8i2yv5Ifsokil8GZDh/FJwvBH6wjStYCUP+BG/wY3tmNf2MNlwY92IJtWucPyPci5QnGmZi6q/BdjbBujX8xZ/kR/QJb8U9CHXxkcP3Rw+Ql38Mfs5bJWYoicqESNOBF0EmCb2RpjsqwnRhHPdsTceQfW8xNhBeZRe8ot4CZh3qcLyLeRO003aPJu0cLyPYC6yeTqSh01N3bfLMe8hYpRDchuhNTzb/AKMlCaJgbLuBn7MWBkCRE/ZhlA6NiY8rjL+aJjGKfpjZJIz27J0P7jAdJo+gmPbRM1+Sia4GFJrN4iSaOQq2Gs0uomr2GpNGuJJpaEobW495DUQLRFY/BgFoa6FiqMlVUwFjRgzANDRA3qnS+KqmHbFo9se3oqxY4pBCEXnIEiCEWt4EUIhscBDZC2ERLUE/QcYewNhEJT4sn+RtyhxRbA4AyNGV8iesDhmwF+QScKPCB7QbcrRtrloX0phHBpUvHuYli+dJ+yJ7u8blDs7sb4UPyxL6PyyOE/LIKsOeYfliTiV6sf8AUxf0MjXA/wCofcxzeTIsPyUF/YGv7CP7CPTyFgpeD6GLlPrZ9TI0rsieMXrUEW7HCY8p0fch/wApw/BGx4EsrQ9rEhIcaGErdROGFSfa6GCw0MEQl6xbwmGSYnuJ7zlCfcTeBPZnYyW47GPqQt6ck5Hke4JYRuAN3RDPmBW2aOx4IBoNxSS3HJhyoUxB0QkoWhfhYsoLGjJCwtGa0NDQMFoxpJjTGhonRdENaJ6LU2k9iz2D8XSpFV47owVmmHL5NOL7yLpo975DAYqSO32Kul3EtL3fwFWRva+anR40NjGnvDoyRrdL5ROw2SJj3djESSTRZk6GwYUmjBqTVZenqJlhFjqLFLDdEio1xOuBhSadSaSXui0L8WAVGyRJaFgmuSFWTEwWjBmAnRQNWpJJojyExEk0w7QtC+Iyd0tD1P7DSwuDBaftNx6GlV3+9VTF9LmFFR4LOxodaQxF6/uwlWDN9L1OmQ9vodHdWSJurGpKr+IwaU79LUJq1xjVOjy3SaSSJomSKhOjek25rKHtVI2J1a1KFSRMVJF+DYrpjQpjxN4Cc7iJId3QcQ4hMVxLuQ3E1uSjEw0YjKKzSLqQRR4VVG8AWizsM9vpsAmtHsNJ/EY6ZXPsxRVmH7zRDpf9q5hoeHVFV/KvjSss2QWj7XJiNjo/iZ7dWRs91HSRjd3ZEjZJI3lE7aMw9tOTvSdCTJ0WFZG9VMKkkicuqHjSYTJGMNSR40HhVqirP4GZkE/Y98LdiI1mgT1g4TgHAEq3zM7mQdWWMsbvqoHIG9zH5t5QluEdJj+RG2boa3IjeJ3B7QgGki1hPcXVTyJP7DWWXqOdC5HuEw+lCZlPoW8njYtQji9jkfhilPCJcKLyxTG35D+of1j+0YciBxPJ/SP6RxhWVYFONEhMmhpk0bHu+lydDy+s0lEjZ7CMNkkj9hix2QxE0ebHT8Eiqyi0Ej/a6jQJq3lD2OA9CRyMOjGyZpNjo1vvR1cMa3GZvQmNImrGGHVuzpTqzJ0kmjX0OiaI61mhEkiIyLbHKjmEuBE1QmL8LY90yFuw6bU0YpWCauJkio9hKVoU2kF00iZIylRoggaKEUTMHdCiCEJUjLsLKuCEzgOEPbGIMjdlfB/GF+uH+iG6CpUi/XH8w/iH8QxwLSRpiJM3kS+j8s4n5ZDifLJDuG7r5Ef3iOwFD/UcyW7b+Rp084eHy0L6WIUN59y5f9xv+4X7sS/9BBP5S2oT2dNQq/jlqAs4wWNL/wCSP5yOX4Qov8ofY2mRsR9D6UcfwLqr4HknrRA/wKe8AiyxUERJFw+gpEuF0Gv0Br9Af6ISVXV+heQudhr9Yja8DUcfBCZQUhwkjb8DXQngj9Q5gjJdScfAd4kF1UXFeBoWSOIcYW3GaHpUGe8T7xkSVIR3Ef0Cn0YlXRirY4rMWLdOQ5SxkQLfOU5RuQkR3CGzJuokwwmXUcoZkZNnhEg+aIKJXEmsxbwzyxgtgSuhCHEBUQqTSSdTpmhsNxNGSbELbE1hjlDQ2tsmqbgWB0rFGSTu2R24kwaXVHTQLWWbFoWYwImeEiSiaGrSgxDEvKFIhCWThNpLkmXIlC9N8sg7oUhlyieLIxCNsSi4xmD9CanKGEMLShHCVbJ951liXt0Q7MuTZ1WbwhdIJbLA8DWGqIYbDOmLJZDaG/AixG6O1M3d86ZnsPmrkobYkZeETomiF2hTbxRMkbHrom4yQMiKOw1uLjab+ZP2HLEkj+5GA2NkkeXlNCGmKBsmjZMm+XRjUjNJsUyxrLWJExuTehyYhJLY+ENAWQnsEDuGxmyuMB0kbtq9ZBCIQkRlDIQLSRAgYCogQjgGlBA4CAhsNQEEhAhD4FWyQ1ZLhImSPKE9JCdZE6TraMkLjJHCZxLULhWlk2WFIrkhGAibBCskkJabCR29yOSeWSbBZTI5M0dHp1HdybaGpnFCQW7EhIZObCRN1dSiOT2QZKGw2LWLoRaeUhDegxXeEEl0G1YQlTgK3VQLEJtjSdpu05AhIsEecl3ZcvyNIm7Kw/XYcPogPHCyYEiPohDdeok7xCQhKMqyY4SchjgCTXVDe5kidestvy6YXk7SPA9xwJpTulY0wLYkiyYHK0tSpESDNcERFXizRgycQzYiboBA90Jc3cecCIktvhIYlIYrcVpL6f8AQ2bDJTpSKc+rga1GRAn21ItAbPkdX6JBBvAmIOfmxEN3YhzFNGJOlsWPQNIK24paD+JjkeUzDRkMFVUbjbYkpzW4wm7xa0RlxQGIxFklk2xMa1MiZJhp4DUkkeQrKrWY9JJqbp1pNMidE0kb/C0CSyc43K7QpJSDp1GYmCVVoaFikZmj4iwjQKyDoSgpOEsKOaGzd3wLmkhVogTESNDt8gmjvWOg7ukK5zuGkUp9Qgg2KIyTvVlyRTayJDIr6oRI5s7lirgdUNrYIIi3dFPPLwPuK9h7EMHcaZMpck4RE294EndxZyhrO7EJil+OuioztqhWUCeZ4FEQniyHqCOuXcQpMJCrGA1twERMtJtjK8m4Hud8ZluSTeWLfuiWPhj4uGrkk0QyHf79Rz2hqtcVgdGl2H1Ili0RTeRurxQdFyQStIaX3DnfQ+g2LIiYTSaHIOTmjaQsyTljUj5E7aHuMSaoe2y5mYe9QGtFybo6DluzYF6Cu6YqMo0ENZ1SJjPQkbHSrW0G4VE1Tc0TGtozpZP4IiYsHAN/Sht6XMR3CdYD082KOz1KhQi5FRZPQdiGZvKKrFCgMHO8koOYS3Et5J9Q/JFuYj+gi6eAnb+BuzcsZJOg4JxBOboQl+hyDCdHo0IgcwpIF8PROzVt0RJJJIYmk4RZmCAnLJMj5Y0SuM35TP5EiclOhItSXDEMi4rwSNJtMfvngQ5TO0ii0krMsVwhLCShEhJQhpPJCLX3BisN0w1FiaXAQ3RfCDWNrCokuk0zaE2SZ9xOhvYSTRssCpQFRuj3j2pInImNi0hVQkMYSg4j2GRXYCra2jAwonU1WzqJkkjDEjY2JjZBDgzRNdmJ9w3aDCk65FrfAsLTWCaudBNHSlqTTEuRAkZMDMQiEQNUiEkQhoKkkJIwcItgcJi7WIYSxwCT0fk7vllrPkPO99GRq/8Ac+9hKBH/AFsyh+SMYfUn+0l08gi5VSZBQJSzdx9F/CH/ACoa1/gYRqF3aCwHwYZG94Ln/ISnbxitYm0TsJfrEfpEdPiH+gG2tLSNjwEfpCEnF2EySg7CXjWBFWE8DfS/AneZ6ww27slA/rsa3byn9wubYHB8nE8nB8nF8jL0lMvqf2DcTyfWx7XyXpASunyPa+R9FfJ9bG9XReoqrLHc4Hk43kt39w/6y5gM8GDu+4Z23nFNMT3E9w7bVhMO/VKRrhKWRHZnAzv+BMXXxQc9fn6jVh9cJXVHCOAWwt4W8iO6EggSECLqcwgW8clKBOcMT76uO0Cgso7yChxli5MiQGkYEEEUIT0STRvS9CmC0lhCq4saMS5LRgJYQqYGSr05Mkwd0NbQ15cglVjx65ImSJlq3YT0Pf3XyY0To3Yu9TRInPbVZpg8utiUe1HsomTSZnyJ0fAtPvmKiZJE3dCdtDQzGlCaMY1+4Y2qM66OrXQsUsQjEsVIRYasxC1B7BxEKSD6HEcRwDVNCiOA4SGwhCTalEgNKcELYgQISEtDzSSaFVhVbvAqJkidJJG/wpYlJqxdpcCK4j2VZHgYqtjdqydGTrJg7ixo9tXQQMz7tEKiCW0QmuV80RXAt9YehrO0C0e9elvAYrS/2b0mqdjjSX3KunzowHSRvAzH20NnV3emZbTi0tYQnSRuzMNDFlWSRroa2h8VTR5EySRrVTejdyaMbloTq10KkiuzrNZpI2SPWlh6coSrWHFOZDT1HUKWrwGyLcECuC1Kl6Yj2rI3Yyd/wlJgu5gKuQwaGjLvaX86skjxP6SKayNbRZGzPEkk092xMmiYxPZDeiaf0kkkkkfxCaSJlg4YnowXdGA6v4DBpSz7ujqtFI1gsVkeyFoyGOlZYtInVMyFgkmnUTq9qJGyRZ0ZCq70SdAWEYJ0T+RjoDYM4LqyfRx3chk1hEszZCS9RscA4o3ZUXQaPfck6hjWRHyOYd3wd/wTK0j5MkeWxNDXGfBam4prTCGl1GrI4QtkLMLuRreY4xDcTRej9boJkokbIx6NRCYw3kVTJGhftcTlE1eHSyJjY2ScbqVPcv4rIhF2RraHAtXuyaySrjFCdWntsYkbpEu2J2pIx47I1vYkYxsdue4x0YtA2YuwsaMV3FZE1aGMFoY12J2JJJQ8i0NYLBNEKiaNbQeKpORCU0s5CDfwQeGL8jjF+XFBVWmREirGlkEMTWIFLWLJoSIIVLEIhUQIWwt1YSlJwMdBULjHGjhQtg4B7KG7oOGcE2lJFideDu+aJ/YEix5hLFLCU0omTadTk2WOd4H0WXoXv8Da5bT0sWP8D6SeDj+CBYiTtecERVxyhqyPCLezO4XZZXW8JkScr0SbBW7hwZEucJkiWf1P6xd/7H9YstOXXcav9RdTyHG8i/aCvKp5E2Yc+HkkOHumcSA349xlhD3Ld2IoCamE9WHsSNL+kSfpJwbKbWVAZRcHQay3tIRU+tehs5uLc2B/xiR5SNShgYDnNsP9OS9PA/mCa38AlsIMez4HF4HH4Cb08BDSDwRdPA7gn7nXuLagnZydXPge+/BbmaRhhiQJnScMWzHBiJ9ItkcqEzoOMOTcW4hbAhuNNxHULZHEHtDgEp3OUW0ztY1gId3AlzCIAW8zmnNiT0OAW0JBJKqROuSRxUqy3qYyUKcJG5TBA8BcxKqo6ozwVUliYb6Cc4uJsLiaFYiZtkieg9oLKzEhC7ghaYZI9xaVWUsskklVlEremMEL5QyaxRMvXoiSaDTgn8Elq2pK3pI3RUbJJo2llkqlixYsWFAoLFhxsI2ysljrSGqd1YglJAjvSBEnFLikIaQ0hpEIhECGxDYbTYf0UwQojgIRA4COxCIENiGxE4UcCFtHCOIcA4FJwKR7BxnEcA9inOREvQShxI4UJeEJVCGxC2IVmt/wIn8Mj0lSaujWIi3ZGDRCVEnsDmcWtb2O27MkmMiHMTLVCzyJCSWQMYCGRsgXIKeHU6FiOo5aYhgJOliUgisEDwb2RcSaQvaMhrDZuYQjSO2hDNyJKuMcE/GIc7NuorW3CJtry0Te4zyZtqRMrY0bdpskKaQtWlsIbO0kxowIa5JHuLB0XRsyOre+gTUnC5FKSTEWpSyZJQ1lEk1YnRyEnDTkUwhKV2L/ALQo3FqTqISWN5nhIbk9XRFAUwZEkqNBylZSlb9aBv1qnCjcJsazmGgtm2pIxsY6tsTmnKIFUMV4bHoVVMMJkbSUsxltI0oaGWQoCjIV0nTkVZonoknQ3oms6JJonSfwoRNZq3cwovw4MZWjjg6wJHVSRQKZxrkm13CBa4kNEEJkRWEMSx9XRCBUU+gyGT7iBrTchdUIjwySQRPMeSMVt2KEEbb5kRIkkJA3RPchbojL1ETMQSJCET9QRylzCIk+mBGbJHazRAhFr/gdN56t3HNzzFEkdSQo3cqTps5L2LORKwO01ZScCadfCGlqIQllnBCHKroh0EGY8sbsx7+oyBNkeY10mKcyu008prKZIkpEuIJOWJAWEiUbJI7sbFir6ZqyKITNju87CEIetm7XXoKyBEW8isiJdInViWoiNwMZzmbEkbjo/wDwTpn8s1mk6Zqnb8M1aHARoT1vbmPxqq0PTAinEhCxWatG06NJqGJEhUvHq0s5oi6K4f4lqlkORCEsKnmRE6Zo2PpNxW0NXRGoQlJauxIcpETBJI7qGKyE6Q48HA3SdDU1bG6MdGOjEi3GbNdBfgTpKwlhKeyYzFoWIqOa0XvlsSQlqn8E0f5ZJ1xpkZJIs0kkVF+ZOr/8SFoga/8APNWx/hbpOqazSaNSs0nXNZJ0Nseh0mq0uJR+VInaq3Tieo26l+ef/DOpaZ0ZCepUms0ZJOqNdvwrU0JEDTVHrY//AAtkjZNW9Ukk6m9M1kbFWSaTVskkdW9Mk/mf/gdFoWi5P/lb0FFV+GSdM0nQ/wDwIVJJobq//JJOpukkjf5ZqmSSSSTSdE1kmkjZOmdc6Jq9Lo6sWiaN/nuXFVMkf55EIlUX4H+CRMkmjo9U0X4JJGyfwz+J0mj0Ok1nU/wSN0micE0mk0knTNJ1NkjdGxv8adcan/7JvpnU/wACDoISQlNDWSCIqv8Awv8AEtDdE6SN63oYh6ZjQ2SN6p0TRkjYyR1kknXOqaTpnU3SSaP8dxuKzo6E0ZNJ/A//AIioYlxux7g//9k=;" vertex="1" parent="1">
                    <mxGeometry width="1514" height="542" as="geometry"/>
                </mxCell>
            </root>
        </mxGraphModel>
    </diagram>
</mxfile>